<mxfile host="app.diagrams.net" modified="2023-11-27T20:46:23.631Z" agent="Mozilla/5.0 (Windows NT 10.0; Win64; x64) AppleWebKit/537.36 (KHTML, like Gecko) Chrome/119.0.0.0 Safari/537.36 Edg/119.0.0.0" etag="QGEvZEpmNSWYgH0wXpnc" version="22.1.4" type="google">
  <diagram id="C5RBs43oDa-KdzZeNtuy" name="Page-1">
    <mxGraphModel grid="1" page="1" gridSize="10" guides="1" tooltips="1" connect="1" arrows="1" fold="1" pageScale="1" pageWidth="4681" pageHeight="3300" math="0" shadow="0">
      <root>
        <mxCell id="WIyWlLk6GJQsqaUBKTNV-0" />
        <mxCell id="WIyWlLk6GJQsqaUBKTNV-1" parent="WIyWlLk6GJQsqaUBKTNV-0" />
        <mxCell id="skpK02PhZIWO-Kw9qIxO-11" value="" style="edgeStyle=orthogonalEdgeStyle;rounded=0;orthogonalLoop=1;jettySize=auto;html=1;entryX=0.5;entryY=0;entryDx=0;entryDy=0;endArrow=none;endFill=0;exitX=0.5;exitY=1;exitDx=0;exitDy=0;" edge="1" parent="WIyWlLk6GJQsqaUBKTNV-1" source="WIyWlLk6GJQsqaUBKTNV-7" target="skpK02PhZIWO-Kw9qIxO-10">
          <mxGeometry relative="1" as="geometry">
            <Array as="points">
              <mxPoint x="2120" y="2250" />
              <mxPoint x="1910" y="2250" />
            </Array>
            <mxPoint x="2120" y="2250.04347826087" as="sourcePoint" />
          </mxGeometry>
        </mxCell>
        <mxCell id="WIyWlLk6GJQsqaUBKTNV-7" value="Passenger" style="rounded=1;whiteSpace=wrap;html=1;fontSize=12;glass=0;strokeWidth=1;shadow=0;" vertex="1" parent="WIyWlLk6GJQsqaUBKTNV-1">
          <mxGeometry x="2060" y="2200" width="120" height="40" as="geometry" />
        </mxCell>
        <mxCell id="ep_p4tKyJs2IfT7Fhqq8-3" value="" style="verticalLabelPosition=bottom;verticalAlign=top;html=1;shape=mxgraph.basic.smiley" vertex="1" parent="WIyWlLk6GJQsqaUBKTNV-1">
          <mxGeometry x="20" y="10" width="100" height="100" as="geometry" />
        </mxCell>
        <mxCell id="n3D0Mt2u0T4ZBu53vhxz-50" style="edgeStyle=orthogonalEdgeStyle;rounded=0;orthogonalLoop=1;jettySize=auto;html=1;exitX=0.5;exitY=0;exitDx=0;exitDy=0;entryX=1;entryY=1;entryDx=0;entryDy=0;endArrow=none;endFill=0;" edge="1" parent="WIyWlLk6GJQsqaUBKTNV-1" source="Co5Mn2CLhW2Af0Ujkfua-63" target="WIyWlLk6GJQsqaUBKTNV-7">
          <mxGeometry relative="1" as="geometry" />
        </mxCell>
        <mxCell id="Co5Mn2CLhW2Af0Ujkfua-63" value="&lt;u&gt;Passport_number&lt;/u&gt;" style="ellipse;whiteSpace=wrap;html=1;rounded=1;glass=0;strokeWidth=1;shadow=0;" vertex="1" parent="WIyWlLk6GJQsqaUBKTNV-1">
          <mxGeometry x="2180" y="2290" width="110" height="60" as="geometry" />
        </mxCell>
        <mxCell id="ep_p4tKyJs2IfT7Fhqq8-10" value="" style="edgeStyle=orthogonalEdgeStyle;rounded=0;orthogonalLoop=1;jettySize=auto;html=1;" edge="1" parent="WIyWlLk6GJQsqaUBKTNV-1" target="ep_p4tKyJs2IfT7Fhqq8-9">
          <mxGeometry relative="1" as="geometry" />
        </mxCell>
        <mxCell id="Co5Mn2CLhW2Af0Ujkfua-72" value="" style="edgeStyle=orthogonalEdgeStyle;rounded=0;orthogonalLoop=1;jettySize=auto;html=1;endArrow=none;endFill=0;" edge="1" parent="WIyWlLk6GJQsqaUBKTNV-1" source="ep_p4tKyJs2IfT7Fhqq8-8" target="Co5Mn2CLhW2Af0Ujkfua-71">
          <mxGeometry relative="1" as="geometry" />
        </mxCell>
        <mxCell id="ep_p4tKyJs2IfT7Fhqq8-8" value="Airport" style="rounded=0;whiteSpace=wrap;html=1;" vertex="1" parent="WIyWlLk6GJQsqaUBKTNV-1">
          <mxGeometry x="375" y="1470" width="120" height="60" as="geometry" />
        </mxCell>
        <mxCell id="ep_p4tKyJs2IfT7Fhqq8-9" value="Name of airport" style="ellipse;whiteSpace=wrap;html=1;rounded=0;" vertex="1" parent="WIyWlLk6GJQsqaUBKTNV-1">
          <mxGeometry x="307.5" y="1350" width="105" height="60" as="geometry" />
        </mxCell>
        <mxCell id="ep_p4tKyJs2IfT7Fhqq8-12" style="edgeStyle=orthogonalEdgeStyle;rounded=0;orthogonalLoop=1;jettySize=auto;html=1;endArrow=none;endFill=0;" edge="1" parent="WIyWlLk6GJQsqaUBKTNV-1" source="ep_p4tKyJs2IfT7Fhqq8-8">
          <mxGeometry relative="1" as="geometry">
            <mxPoint x="480" y="1410" as="targetPoint" />
          </mxGeometry>
        </mxCell>
        <mxCell id="ep_p4tKyJs2IfT7Fhqq8-11" value="" style="edgeStyle=orthogonalEdgeStyle;rounded=0;orthogonalLoop=1;jettySize=auto;html=1;endArrow=none;endFill=0;" edge="1" parent="WIyWlLk6GJQsqaUBKTNV-1" source="ep_p4tKyJs2IfT7Fhqq8-8" target="ep_p4tKyJs2IfT7Fhqq8-9">
          <mxGeometry relative="1" as="geometry" />
        </mxCell>
        <mxCell id="ep_p4tKyJs2IfT7Fhqq8-13" value="&lt;u&gt;Code&lt;/u&gt;" style="ellipse;whiteSpace=wrap;html=1;" vertex="1" parent="WIyWlLk6GJQsqaUBKTNV-1">
          <mxGeometry x="425" y="1350" width="100" height="60" as="geometry" />
        </mxCell>
        <mxCell id="ep_p4tKyJs2IfT7Fhqq8-17" value="" style="edgeStyle=orthogonalEdgeStyle;rounded=0;orthogonalLoop=1;jettySize=auto;html=1;endArrow=none;endFill=0;" edge="1" parent="WIyWlLk6GJQsqaUBKTNV-1" source="ep_p4tKyJs2IfT7Fhqq8-8" target="ep_p4tKyJs2IfT7Fhqq8-16">
          <mxGeometry relative="1" as="geometry" />
        </mxCell>
        <mxCell id="ep_p4tKyJs2IfT7Fhqq8-16" value="Country" style="ellipse;whiteSpace=wrap;html=1;rounded=0;" vertex="1" parent="WIyWlLk6GJQsqaUBKTNV-1">
          <mxGeometry x="532.5" y="1390" width="100" height="50" as="geometry" />
        </mxCell>
        <mxCell id="ep_p4tKyJs2IfT7Fhqq8-19" value="Assumptions" style="shape=table;startSize=30;container=1;collapsible=0;childLayout=tableLayout;fixedRows=1;rowLines=0;fontStyle=0;strokeColor=default;fontSize=16;" vertex="1" parent="WIyWlLk6GJQsqaUBKTNV-1">
          <mxGeometry x="30" y="2980" width="1060" height="260" as="geometry" />
        </mxCell>
        <mxCell id="ep_p4tKyJs2IfT7Fhqq8-20" value="" style="shape=tableRow;horizontal=0;startSize=0;swimlaneHead=0;swimlaneBody=0;top=0;left=0;bottom=0;right=0;collapsible=0;dropTarget=0;fillColor=none;points=[[0,0.5],[1,0.5]];portConstraint=eastwest;strokeColor=inherit;fontSize=16;" vertex="1" parent="ep_p4tKyJs2IfT7Fhqq8-19">
          <mxGeometry y="30" width="1060" height="30" as="geometry" />
        </mxCell>
        <mxCell id="ep_p4tKyJs2IfT7Fhqq8-21" value="1" style="shape=partialRectangle;html=1;whiteSpace=wrap;connectable=0;fillColor=none;top=0;left=0;bottom=0;right=0;overflow=hidden;pointerEvents=1;strokeColor=inherit;fontSize=16;" vertex="1" parent="ep_p4tKyJs2IfT7Fhqq8-20">
          <mxGeometry width="235" height="30" as="geometry">
            <mxRectangle width="235" height="30" as="alternateBounds" />
          </mxGeometry>
        </mxCell>
        <mxCell id="ep_p4tKyJs2IfT7Fhqq8-22" value="We assume that an airport can be without routes" style="shape=partialRectangle;html=1;whiteSpace=wrap;connectable=0;fillColor=none;top=0;left=0;bottom=0;right=0;align=left;spacingLeft=6;overflow=hidden;strokeColor=inherit;fontSize=16;" vertex="1" parent="ep_p4tKyJs2IfT7Fhqq8-20">
          <mxGeometry x="235" width="825" height="30" as="geometry">
            <mxRectangle width="825" height="30" as="alternateBounds" />
          </mxGeometry>
        </mxCell>
        <mxCell id="ep_p4tKyJs2IfT7Fhqq8-23" value="" style="shape=tableRow;horizontal=0;startSize=0;swimlaneHead=0;swimlaneBody=0;top=0;left=0;bottom=0;right=0;collapsible=0;dropTarget=0;fillColor=none;points=[[0,0.5],[1,0.5]];portConstraint=eastwest;strokeColor=inherit;fontSize=16;" vertex="1" parent="ep_p4tKyJs2IfT7Fhqq8-19">
          <mxGeometry y="60" width="1060" height="30" as="geometry" />
        </mxCell>
        <mxCell id="ep_p4tKyJs2IfT7Fhqq8-24" value="2" style="shape=partialRectangle;html=1;whiteSpace=wrap;connectable=0;fillColor=none;top=0;left=0;bottom=0;right=0;overflow=hidden;strokeColor=inherit;fontSize=16;" vertex="1" parent="ep_p4tKyJs2IfT7Fhqq8-23">
          <mxGeometry width="235" height="30" as="geometry">
            <mxRectangle width="235" height="30" as="alternateBounds" />
          </mxGeometry>
        </mxCell>
        <mxCell id="ep_p4tKyJs2IfT7Fhqq8-25" value="We assume that a route cant exist without two routes furthermore we assume that brianair will never do stopovers" style="shape=partialRectangle;html=1;whiteSpace=wrap;connectable=0;fillColor=none;top=0;left=0;bottom=0;right=0;align=left;spacingLeft=6;overflow=hidden;strokeColor=inherit;fontSize=16;" vertex="1" parent="ep_p4tKyJs2IfT7Fhqq8-23">
          <mxGeometry x="235" width="825" height="30" as="geometry">
            <mxRectangle width="825" height="30" as="alternateBounds" />
          </mxGeometry>
        </mxCell>
        <mxCell id="ep_p4tKyJs2IfT7Fhqq8-26" value="" style="shape=tableRow;horizontal=0;startSize=0;swimlaneHead=0;swimlaneBody=0;top=0;left=0;bottom=0;right=0;collapsible=0;dropTarget=0;fillColor=none;points=[[0,0.5],[1,0.5]];portConstraint=eastwest;strokeColor=inherit;fontSize=16;" vertex="1" parent="ep_p4tKyJs2IfT7Fhqq8-19">
          <mxGeometry y="90" width="1060" height="30" as="geometry" />
        </mxCell>
        <mxCell id="ep_p4tKyJs2IfT7Fhqq8-27" value="3" style="shape=partialRectangle;html=1;whiteSpace=wrap;connectable=0;fillColor=none;top=0;left=0;bottom=0;right=0;overflow=hidden;strokeColor=inherit;fontSize=16;" vertex="1" parent="ep_p4tKyJs2IfT7Fhqq8-26">
          <mxGeometry width="235" height="30" as="geometry">
            <mxRectangle width="235" height="30" as="alternateBounds" />
          </mxGeometry>
        </mxCell>
        <mxCell id="ep_p4tKyJs2IfT7Fhqq8-28" value="Since this was a &quot;bad&quot; idea we assume that a plane can lift with no passengers (no reservations are made)" style="shape=partialRectangle;html=1;whiteSpace=wrap;connectable=0;fillColor=none;top=0;left=0;bottom=0;right=0;align=left;spacingLeft=6;overflow=hidden;strokeColor=inherit;fontSize=16;" vertex="1" parent="ep_p4tKyJs2IfT7Fhqq8-26">
          <mxGeometry x="235" width="825" height="30" as="geometry">
            <mxRectangle width="825" height="30" as="alternateBounds" />
          </mxGeometry>
        </mxCell>
        <mxCell id="ep_p4tKyJs2IfT7Fhqq8-41" style="edgeStyle=orthogonalEdgeStyle;rounded=0;orthogonalLoop=1;jettySize=auto;html=1;exitX=1;exitY=0;exitDx=0;exitDy=0;entryX=0;entryY=0.5;entryDx=0;entryDy=0;endArrow=none;endFill=0;" edge="1" parent="WIyWlLk6GJQsqaUBKTNV-1" source="ep_p4tKyJs2IfT7Fhqq8-30" target="Co5Mn2CLhW2Af0Ujkfua-74">
          <mxGeometry relative="1" as="geometry" />
        </mxCell>
        <mxCell id="ep_p4tKyJs2IfT7Fhqq8-30" value="" style="rounded=0;whiteSpace=wrap;html=1;" vertex="1" parent="WIyWlLk6GJQsqaUBKTNV-1">
          <mxGeometry x="375" y="1740" width="120" height="60" as="geometry" />
        </mxCell>
        <mxCell id="ep_p4tKyJs2IfT7Fhqq8-33" value="" style="edgeStyle=orthogonalEdgeStyle;rounded=0;orthogonalLoop=1;jettySize=auto;html=1;endArrow=none;endFill=0;" edge="1" parent="WIyWlLk6GJQsqaUBKTNV-1" source="ep_p4tKyJs2IfT7Fhqq8-31" target="ep_p4tKyJs2IfT7Fhqq8-32">
          <mxGeometry relative="1" as="geometry" />
        </mxCell>
        <mxCell id="ep_p4tKyJs2IfT7Fhqq8-35" value="" style="edgeStyle=orthogonalEdgeStyle;rounded=0;orthogonalLoop=1;jettySize=auto;html=1;endArrow=none;endFill=0;" edge="1" parent="WIyWlLk6GJQsqaUBKTNV-1" source="ep_p4tKyJs2IfT7Fhqq8-31" target="ep_p4tKyJs2IfT7Fhqq8-34">
          <mxGeometry relative="1" as="geometry" />
        </mxCell>
        <mxCell id="ep_p4tKyJs2IfT7Fhqq8-31" value="Route" style="rounded=0;whiteSpace=wrap;html=1;" vertex="1" parent="WIyWlLk6GJQsqaUBKTNV-1">
          <mxGeometry x="382.5" y="1750" width="105" height="40" as="geometry" />
        </mxCell>
        <mxCell id="Co5Mn2CLhW2Af0Ujkfua-73" style="edgeStyle=orthogonalEdgeStyle;rounded=0;orthogonalLoop=1;jettySize=auto;html=1;entryX=0.5;entryY=0;entryDx=0;entryDy=0;endArrow=none;endFill=0;shape=link;" edge="1" parent="WIyWlLk6GJQsqaUBKTNV-1" source="Co5Mn2CLhW2Af0Ujkfua-71" target="ep_p4tKyJs2IfT7Fhqq8-30">
          <mxGeometry relative="1" as="geometry" />
        </mxCell>
        <mxCell id="Co5Mn2CLhW2Af0Ujkfua-71" value="has" style="rhombus;whiteSpace=wrap;html=1;rounded=0;" vertex="1" parent="WIyWlLk6GJQsqaUBKTNV-1">
          <mxGeometry x="395" y="1600" width="80" height="80" as="geometry" />
        </mxCell>
        <mxCell id="ep_p4tKyJs2IfT7Fhqq8-32" value="&lt;u&gt;Unique ID&lt;/u&gt;" style="ellipse;whiteSpace=wrap;html=1;rounded=0;" vertex="1" parent="WIyWlLk6GJQsqaUBKTNV-1">
          <mxGeometry x="210" y="1740" width="90" height="60" as="geometry" />
        </mxCell>
        <mxCell id="ep_p4tKyJs2IfT7Fhqq8-34" value="Price for route" style="ellipse;whiteSpace=wrap;html=1;rounded=0;" vertex="1" parent="WIyWlLk6GJQsqaUBKTNV-1">
          <mxGeometry x="530" y="1800" width="90" height="60" as="geometry" />
        </mxCell>
        <mxCell id="ep_p4tKyJs2IfT7Fhqq8-36" value="has" style="rhombus;whiteSpace=wrap;html=1;" vertex="1" parent="WIyWlLk6GJQsqaUBKTNV-1">
          <mxGeometry x="402.5" y="1610" width="65" height="60" as="geometry" />
        </mxCell>
        <mxCell id="ep_p4tKyJs2IfT7Fhqq8-37" value="2" style="text;html=1;align=center;verticalAlign=middle;resizable=0;points=[];autosize=1;strokeColor=none;fillColor=none;" vertex="1" parent="WIyWlLk6GJQsqaUBKTNV-1">
          <mxGeometry x="435" y="1530" width="30" height="30" as="geometry" />
        </mxCell>
        <mxCell id="ep_p4tKyJs2IfT7Fhqq8-38" value="N" style="text;html=1;align=center;verticalAlign=middle;resizable=0;points=[];autosize=1;strokeColor=none;fillColor=none;" vertex="1" parent="WIyWlLk6GJQsqaUBKTNV-1">
          <mxGeometry x="435" y="1720" width="30" height="30" as="geometry" />
        </mxCell>
        <mxCell id="ep_p4tKyJs2IfT7Fhqq8-44" style="edgeStyle=orthogonalEdgeStyle;rounded=0;orthogonalLoop=1;jettySize=auto;html=1;exitX=0.25;exitY=0;exitDx=0;exitDy=0;entryX=1;entryY=1;entryDx=0;entryDy=0;endArrow=none;endFill=0;" edge="1" parent="WIyWlLk6GJQsqaUBKTNV-1" source="ep_p4tKyJs2IfT7Fhqq8-39" target="ep_p4tKyJs2IfT7Fhqq8-43">
          <mxGeometry relative="1" as="geometry" />
        </mxCell>
        <mxCell id="ep_p4tKyJs2IfT7Fhqq8-48" style="edgeStyle=orthogonalEdgeStyle;rounded=0;orthogonalLoop=1;jettySize=auto;html=1;exitX=1;exitY=0;exitDx=0;exitDy=0;endArrow=none;endFill=0;" edge="1" parent="WIyWlLk6GJQsqaUBKTNV-1" source="ep_p4tKyJs2IfT7Fhqq8-39" target="ep_p4tKyJs2IfT7Fhqq8-49">
          <mxGeometry relative="1" as="geometry">
            <mxPoint x="920" y="1580" as="targetPoint" />
          </mxGeometry>
        </mxCell>
        <mxCell id="Co5Mn2CLhW2Af0Ujkfua-82" value="" style="edgeStyle=orthogonalEdgeStyle;rounded=0;orthogonalLoop=1;jettySize=auto;html=1;endArrow=none;endFill=0;" edge="1" parent="WIyWlLk6GJQsqaUBKTNV-1" source="ep_p4tKyJs2IfT7Fhqq8-39" target="Co5Mn2CLhW2Af0Ujkfua-81">
          <mxGeometry relative="1" as="geometry" />
        </mxCell>
        <mxCell id="ep_p4tKyJs2IfT7Fhqq8-39" value="Schedule" style="rounded=0;whiteSpace=wrap;html=1;" vertex="1" parent="WIyWlLk6GJQsqaUBKTNV-1">
          <mxGeometry x="740" y="1620" width="120" height="60" as="geometry" />
        </mxCell>
        <mxCell id="ep_p4tKyJs2IfT7Fhqq8-42" style="edgeStyle=orthogonalEdgeStyle;rounded=0;orthogonalLoop=1;jettySize=auto;html=1;exitX=1;exitY=0.5;exitDx=0;exitDy=0;entryX=0;entryY=0.5;entryDx=0;entryDy=0;endArrow=none;endFill=0;" edge="1" parent="WIyWlLk6GJQsqaUBKTNV-1" source="Co5Mn2CLhW2Af0Ujkfua-74" target="ep_p4tKyJs2IfT7Fhqq8-39">
          <mxGeometry relative="1" as="geometry" />
        </mxCell>
        <mxCell id="skpK02PhZIWO-Kw9qIxO-29" value="N" style="edgeLabel;html=1;align=center;verticalAlign=middle;resizable=0;points=[];" connectable="0" vertex="1" parent="ep_p4tKyJs2IfT7Fhqq8-42">
          <mxGeometry x="0.6651" y="-3" relative="1" as="geometry">
            <mxPoint x="1" y="-13" as="offset" />
          </mxGeometry>
        </mxCell>
        <mxCell id="Co5Mn2CLhW2Af0Ujkfua-74" value="Schedules" style="rhombus;whiteSpace=wrap;html=1;rounded=0;" vertex="1" parent="WIyWlLk6GJQsqaUBKTNV-1">
          <mxGeometry x="580" y="1630" width="70" height="70" as="geometry" />
        </mxCell>
        <mxCell id="ep_p4tKyJs2IfT7Fhqq8-43" value="&lt;u&gt;Id&lt;/u&gt;" style="ellipse;whiteSpace=wrap;html=1;" vertex="1" parent="WIyWlLk6GJQsqaUBKTNV-1">
          <mxGeometry x="645" y="1510" width="85" height="60" as="geometry" />
        </mxCell>
        <mxCell id="ep_p4tKyJs2IfT7Fhqq8-50" style="edgeStyle=orthogonalEdgeStyle;rounded=0;orthogonalLoop=1;jettySize=auto;html=1;exitX=0.75;exitY=0;exitDx=0;exitDy=0;endArrow=none;endFill=0;" edge="1" parent="WIyWlLk6GJQsqaUBKTNV-1" source="ep_p4tKyJs2IfT7Fhqq8-39" target="ep_p4tKyJs2IfT7Fhqq8-51">
          <mxGeometry relative="1" as="geometry">
            <mxPoint x="870" y="1500" as="targetPoint" />
            <mxPoint x="855.3553390593274" y="1535.857864376269" as="sourcePoint" />
          </mxGeometry>
        </mxCell>
        <mxCell id="ep_p4tKyJs2IfT7Fhqq8-52" style="edgeStyle=orthogonalEdgeStyle;rounded=0;orthogonalLoop=1;jettySize=auto;html=1;endArrow=none;endFill=0;exitX=0.5;exitY=0;exitDx=0;exitDy=0;" edge="1" parent="WIyWlLk6GJQsqaUBKTNV-1" source="ep_p4tKyJs2IfT7Fhqq8-39" target="ep_p4tKyJs2IfT7Fhqq8-53">
          <mxGeometry relative="1" as="geometry">
            <mxPoint x="770" y="1480" as="targetPoint" />
            <mxPoint x="785" y="1536" as="sourcePoint" />
          </mxGeometry>
        </mxCell>
        <mxCell id="ep_p4tKyJs2IfT7Fhqq8-49" value="departure times" style="ellipse;whiteSpace=wrap;html=1;" vertex="1" parent="WIyWlLk6GJQsqaUBKTNV-1">
          <mxGeometry x="890" y="1520" width="90" height="60" as="geometry" />
        </mxCell>
        <mxCell id="ep_p4tKyJs2IfT7Fhqq8-51" value="day" style="ellipse;whiteSpace=wrap;html=1;" vertex="1" parent="WIyWlLk6GJQsqaUBKTNV-1">
          <mxGeometry x="840" y="1440" width="90" height="40" as="geometry" />
        </mxCell>
        <mxCell id="ep_p4tKyJs2IfT7Fhqq8-53" value="year" style="ellipse;whiteSpace=wrap;html=1;" vertex="1" parent="WIyWlLk6GJQsqaUBKTNV-1">
          <mxGeometry x="730" y="1430" width="90" height="50" as="geometry" />
        </mxCell>
        <mxCell id="Co5Mn2CLhW2Af0Ujkfua-84" value="" style="edgeStyle=orthogonalEdgeStyle;rounded=0;orthogonalLoop=1;jettySize=auto;html=1;endArrow=none;endFill=0;" edge="1" parent="WIyWlLk6GJQsqaUBKTNV-1" source="Co5Mn2CLhW2Af0Ujkfua-81" target="Co5Mn2CLhW2Af0Ujkfua-83">
          <mxGeometry relative="1" as="geometry" />
        </mxCell>
        <mxCell id="Co5Mn2CLhW2Af0Ujkfua-81" value="Flight schedule" style="rhombus;whiteSpace=wrap;html=1;rounded=0;" vertex="1" parent="WIyWlLk6GJQsqaUBKTNV-1">
          <mxGeometry x="1010" y="1605" width="110" height="90" as="geometry" />
        </mxCell>
        <mxCell id="Co5Mn2CLhW2Af0Ujkfua-92" value="" style="edgeStyle=orthogonalEdgeStyle;rounded=0;orthogonalLoop=1;jettySize=auto;html=1;endArrow=none;endFill=0;" edge="1" parent="WIyWlLk6GJQsqaUBKTNV-1" source="Co5Mn2CLhW2Af0Ujkfua-83" target="Co5Mn2CLhW2Af0Ujkfua-91">
          <mxGeometry relative="1" as="geometry" />
        </mxCell>
        <mxCell id="Co5Mn2CLhW2Af0Ujkfua-96" value="" style="edgeStyle=orthogonalEdgeStyle;rounded=0;orthogonalLoop=1;jettySize=auto;html=1;endArrow=none;endFill=0;" edge="1" parent="WIyWlLk6GJQsqaUBKTNV-1" source="Co5Mn2CLhW2Af0Ujkfua-83" target="Co5Mn2CLhW2Af0Ujkfua-95">
          <mxGeometry relative="1" as="geometry" />
        </mxCell>
        <mxCell id="ep_p4tKyJs2IfT7Fhqq8-58" style="edgeStyle=orthogonalEdgeStyle;rounded=0;orthogonalLoop=1;jettySize=auto;html=1;exitX=1;exitY=1;exitDx=0;exitDy=0;entryX=0;entryY=0;entryDx=0;entryDy=0;endArrow=none;endFill=0;" edge="1" parent="WIyWlLk6GJQsqaUBKTNV-1" source="Co5Mn2CLhW2Af0Ujkfua-83" target="ep_p4tKyJs2IfT7Fhqq8-57">
          <mxGeometry relative="1" as="geometry" />
        </mxCell>
        <mxCell id="skpK02PhZIWO-Kw9qIxO-9" value="" style="edgeStyle=orthogonalEdgeStyle;rounded=0;orthogonalLoop=1;jettySize=auto;html=1;endArrow=none;endFill=0;" edge="1" parent="WIyWlLk6GJQsqaUBKTNV-1" source="Co5Mn2CLhW2Af0Ujkfua-83" target="Co5Mn2CLhW2Af0Ujkfua-85">
          <mxGeometry relative="1" as="geometry" />
        </mxCell>
        <mxCell id="Co5Mn2CLhW2Af0Ujkfua-83" value="Flight" style="whiteSpace=wrap;html=1;rounded=0;" vertex="1" parent="WIyWlLk6GJQsqaUBKTNV-1">
          <mxGeometry x="1195" y="1620" width="125" height="60" as="geometry" />
        </mxCell>
        <mxCell id="Co5Mn2CLhW2Af0Ujkfua-85" value="&lt;u&gt;Flightnumber&lt;/u&gt;" style="ellipse;whiteSpace=wrap;html=1;rounded=0;" vertex="1" parent="WIyWlLk6GJQsqaUBKTNV-1">
          <mxGeometry x="1192.5" y="1520" width="125" height="40" as="geometry" />
        </mxCell>
        <mxCell id="Co5Mn2CLhW2Af0Ujkfua-91" value="Number of seats" style="ellipse;whiteSpace=wrap;html=1;rounded=0;" vertex="1" parent="WIyWlLk6GJQsqaUBKTNV-1">
          <mxGeometry x="1350" y="1510" width="110" height="60" as="geometry" />
        </mxCell>
        <mxCell id="Co5Mn2CLhW2Af0Ujkfua-95" value="Week" style="ellipse;whiteSpace=wrap;html=1;rounded=0;" vertex="1" parent="WIyWlLk6GJQsqaUBKTNV-1">
          <mxGeometry x="1198.75" y="1730" width="112.5" height="60" as="geometry" />
        </mxCell>
        <mxCell id="n3D0Mt2u0T4ZBu53vhxz-0" style="edgeStyle=orthogonalEdgeStyle;rounded=0;orthogonalLoop=1;jettySize=auto;html=1;exitX=0.5;exitY=1;exitDx=0;exitDy=0;entryX=0.5;entryY=0;entryDx=0;entryDy=0;endArrow=none;endFill=0;" edge="1" parent="WIyWlLk6GJQsqaUBKTNV-1" source="ep_p4tKyJs2IfT7Fhqq8-57" target="skpK02PhZIWO-Kw9qIxO-0">
          <mxGeometry relative="1" as="geometry" />
        </mxCell>
        <mxCell id="ep_p4tKyJs2IfT7Fhqq8-57" value="Reserve" style="rhombus;whiteSpace=wrap;html=1;" vertex="1" parent="WIyWlLk6GJQsqaUBKTNV-1">
          <mxGeometry x="1420" y="1790" width="65" height="55" as="geometry" />
        </mxCell>
        <mxCell id="ep_p4tKyJs2IfT7Fhqq8-62" style="edgeStyle=orthogonalEdgeStyle;rounded=0;orthogonalLoop=1;jettySize=auto;html=1;exitX=0;exitY=1;exitDx=0;exitDy=0;entryX=0.75;entryY=0;entryDx=0;entryDy=0;endArrow=none;endFill=0;" edge="1" parent="WIyWlLk6GJQsqaUBKTNV-1" source="ep_p4tKyJs2IfT7Fhqq8-59" target="WIyWlLk6GJQsqaUBKTNV-7">
          <mxGeometry relative="1" as="geometry">
            <mxPoint x="2154.0555462813886" y="2107.397500267543" as="targetPoint" />
            <Array as="points">
              <mxPoint x="2154" y="2050" />
              <mxPoint x="2154" y="2200" />
            </Array>
          </mxGeometry>
        </mxCell>
        <mxCell id="ep_p4tKyJs2IfT7Fhqq8-59" value="Last name" style="ellipse;whiteSpace=wrap;html=1;" vertex="1" parent="WIyWlLk6GJQsqaUBKTNV-1">
          <mxGeometry x="2195" y="1990" width="100" height="70" as="geometry" />
        </mxCell>
        <mxCell id="ep_p4tKyJs2IfT7Fhqq8-65" style="edgeStyle=orthogonalEdgeStyle;rounded=0;orthogonalLoop=1;jettySize=auto;html=1;exitX=0.5;exitY=1;exitDx=0;exitDy=0;entryX=0.25;entryY=0;entryDx=0;entryDy=0;endArrow=none;endFill=0;" edge="1" parent="WIyWlLk6GJQsqaUBKTNV-1" source="ep_p4tKyJs2IfT7Fhqq8-60" target="WIyWlLk6GJQsqaUBKTNV-7">
          <mxGeometry relative="1" as="geometry">
            <mxPoint x="2075.9444537186123" y="2107.3975002675434" as="targetPoint" />
          </mxGeometry>
        </mxCell>
        <mxCell id="ep_p4tKyJs2IfT7Fhqq8-60" value="First name" style="ellipse;whiteSpace=wrap;html=1;" vertex="1" parent="WIyWlLk6GJQsqaUBKTNV-1">
          <mxGeometry x="1930" y="1990" width="100" height="60" as="geometry" />
        </mxCell>
        <mxCell id="ep_p4tKyJs2IfT7Fhqq8-63" style="edgeStyle=orthogonalEdgeStyle;rounded=0;orthogonalLoop=1;jettySize=auto;html=1;exitX=0.5;exitY=1;exitDx=0;exitDy=0;endArrow=none;endFill=0;entryX=0.5;entryY=0;entryDx=0;entryDy=0;" edge="1" parent="WIyWlLk6GJQsqaUBKTNV-1" target="WIyWlLk6GJQsqaUBKTNV-7">
          <mxGeometry relative="1" as="geometry">
            <mxPoint x="2110.0000000000005" y="2050" as="sourcePoint" />
            <mxPoint x="2115" y="2110" as="targetPoint" />
          </mxGeometry>
        </mxCell>
        <mxCell id="skpK02PhZIWO-Kw9qIxO-4" value="" style="edgeStyle=orthogonalEdgeStyle;rounded=0;orthogonalLoop=1;jettySize=auto;html=1;entryX=0.5;entryY=0;entryDx=0;entryDy=0;endArrow=none;endFill=0;" edge="1" parent="WIyWlLk6GJQsqaUBKTNV-1" source="skpK02PhZIWO-Kw9qIxO-0" target="n3D0Mt2u0T4ZBu53vhxz-6">
          <mxGeometry relative="1" as="geometry">
            <mxPoint x="1430" y="2090" as="targetPoint" />
          </mxGeometry>
        </mxCell>
        <mxCell id="n3D0Mt2u0T4ZBu53vhxz-32" style="edgeStyle=orthogonalEdgeStyle;rounded=0;orthogonalLoop=1;jettySize=auto;html=1;exitX=1;exitY=0;exitDx=0;exitDy=0;entryX=0;entryY=0.5;entryDx=0;entryDy=0;endArrow=none;endFill=0;" edge="1" parent="WIyWlLk6GJQsqaUBKTNV-1" source="skpK02PhZIWO-Kw9qIxO-0" target="n3D0Mt2u0T4ZBu53vhxz-31">
          <mxGeometry relative="1" as="geometry" />
        </mxCell>
        <mxCell id="n3D0Mt2u0T4ZBu53vhxz-45" style="edgeStyle=orthogonalEdgeStyle;rounded=0;orthogonalLoop=1;jettySize=auto;html=1;exitX=1;exitY=0.25;exitDx=0;exitDy=0;entryX=0;entryY=0;entryDx=0;entryDy=0;endArrow=none;endFill=0;" edge="1" parent="WIyWlLk6GJQsqaUBKTNV-1" source="skpK02PhZIWO-Kw9qIxO-0" target="n3D0Mt2u0T4ZBu53vhxz-44">
          <mxGeometry relative="1" as="geometry" />
        </mxCell>
        <mxCell id="skpK02PhZIWO-Kw9qIxO-0" value="Reservation" style="whiteSpace=wrap;html=1;rounded=0;" vertex="1" parent="WIyWlLk6GJQsqaUBKTNV-1">
          <mxGeometry x="1360" y="1970" width="125" height="60" as="geometry" />
        </mxCell>
        <mxCell id="n3D0Mt2u0T4ZBu53vhxz-1" value="reserve" style="rhombus;whiteSpace=wrap;html=1;" vertex="1" parent="WIyWlLk6GJQsqaUBKTNV-1">
          <mxGeometry x="1426.25" y="1796.25" width="52.5" height="42.5" as="geometry" />
        </mxCell>
        <mxCell id="n3D0Mt2u0T4ZBu53vhxz-3" style="edgeStyle=orthogonalEdgeStyle;rounded=0;orthogonalLoop=1;jettySize=auto;html=1;exitX=1;exitY=1;exitDx=0;exitDy=0;entryX=0;entryY=0;entryDx=0;entryDy=0;endArrow=none;endFill=0;" edge="1" parent="WIyWlLk6GJQsqaUBKTNV-1" source="n3D0Mt2u0T4ZBu53vhxz-2" target="skpK02PhZIWO-Kw9qIxO-0">
          <mxGeometry relative="1" as="geometry" />
        </mxCell>
        <mxCell id="n3D0Mt2u0T4ZBu53vhxz-2" value="&lt;u&gt;reservation number&lt;/u&gt;" style="ellipse;whiteSpace=wrap;html=1;" vertex="1" parent="WIyWlLk6GJQsqaUBKTNV-1">
          <mxGeometry x="1280" y="1868" width="80" height="40" as="geometry" />
        </mxCell>
        <mxCell id="n3D0Mt2u0T4ZBu53vhxz-5" style="edgeStyle=orthogonalEdgeStyle;rounded=0;orthogonalLoop=1;jettySize=auto;html=1;exitX=1;exitY=0.5;exitDx=0;exitDy=0;entryX=0;entryY=0.5;entryDx=0;entryDy=0;endArrow=none;endFill=0;" edge="1" parent="WIyWlLk6GJQsqaUBKTNV-1" source="n3D0Mt2u0T4ZBu53vhxz-4" target="skpK02PhZIWO-Kw9qIxO-0">
          <mxGeometry relative="1" as="geometry" />
        </mxCell>
        <mxCell id="n3D0Mt2u0T4ZBu53vhxz-4" value="seats number" style="ellipse;whiteSpace=wrap;html=1;" vertex="1" parent="WIyWlLk6GJQsqaUBKTNV-1">
          <mxGeometry x="1195" y="1980" width="80" height="40" as="geometry" />
        </mxCell>
        <mxCell id="n3D0Mt2u0T4ZBu53vhxz-8" style="edgeStyle=orthogonalEdgeStyle;rounded=0;orthogonalLoop=1;jettySize=auto;html=1;exitX=1;exitY=0.75;exitDx=0;exitDy=0;entryX=0;entryY=0.5;entryDx=0;entryDy=0;endArrow=none;endFill=0;" edge="1" parent="WIyWlLk6GJQsqaUBKTNV-1" source="n3D0Mt2u0T4ZBu53vhxz-6" target="n3D0Mt2u0T4ZBu53vhxz-7">
          <mxGeometry relative="1" as="geometry" />
        </mxCell>
        <mxCell id="n3D0Mt2u0T4ZBu53vhxz-6" value="Booking" style="rounded=0;whiteSpace=wrap;html=1;" vertex="1" parent="WIyWlLk6GJQsqaUBKTNV-1">
          <mxGeometry x="1550" y="2220" width="120" height="60" as="geometry" />
        </mxCell>
        <mxCell id="n3D0Mt2u0T4ZBu53vhxz-7" value="price by formula" style="ellipse;whiteSpace=wrap;html=1;" vertex="1" parent="WIyWlLk6GJQsqaUBKTNV-1">
          <mxGeometry x="1710" y="2270" width="70" height="40" as="geometry" />
        </mxCell>
        <mxCell id="n3D0Mt2u0T4ZBu53vhxz-12" value="" style="shape=requiredInterface;html=1;verticalLabelPosition=bottom;sketch=0;" vertex="1" parent="WIyWlLk6GJQsqaUBKTNV-1">
          <mxGeometry x="1570" y="1990" width="30" height="20" as="geometry" />
        </mxCell>
        <mxCell id="n3D0Mt2u0T4ZBu53vhxz-14" value="&lt;span style=&quot;border-bottom: 1px dotted&quot;&gt;Middle name&lt;/span&gt;" style="ellipse;whiteSpace=wrap;html=1;align=center;" vertex="1" parent="WIyWlLk6GJQsqaUBKTNV-1">
          <mxGeometry x="2060" y="2010" width="100" height="40" as="geometry" />
        </mxCell>
        <mxCell id="n3D0Mt2u0T4ZBu53vhxz-15" value="We assume not everyone has a middle name" style="text;html=1;align=center;verticalAlign=middle;resizable=0;points=[];autosize=1;strokeColor=none;fillColor=none;" vertex="1" parent="WIyWlLk6GJQsqaUBKTNV-1">
          <mxGeometry x="270" y="3110" width="260" height="30" as="geometry" />
        </mxCell>
        <mxCell id="n3D0Mt2u0T4ZBu53vhxz-17" style="edgeStyle=orthogonalEdgeStyle;rounded=0;orthogonalLoop=1;jettySize=auto;html=1;exitX=1;exitY=0.5;exitDx=0;exitDy=0;entryX=0;entryY=0.5;entryDx=0;entryDy=0;endArrow=none;endFill=0;shape=link;" edge="1" parent="WIyWlLk6GJQsqaUBKTNV-1" source="n3D0Mt2u0T4ZBu53vhxz-16" target="n3D0Mt2u0T4ZBu53vhxz-6">
          <mxGeometry relative="1" as="geometry" />
        </mxCell>
        <mxCell id="n3D0Mt2u0T4ZBu53vhxz-16" value="payment process" style="rhombus;whiteSpace=wrap;html=1;" vertex="1" parent="WIyWlLk6GJQsqaUBKTNV-1">
          <mxGeometry x="1411.25" y="2220" width="67.5" height="60" as="geometry" />
        </mxCell>
        <mxCell id="skpK02PhZIWO-Kw9qIxO-5" value="" style="edgeStyle=orthogonalEdgeStyle;rounded=0;orthogonalLoop=1;jettySize=auto;html=1;shape=link;" edge="1" parent="WIyWlLk6GJQsqaUBKTNV-1" source="n3D0Mt2u0T4ZBu53vhxz-18" target="n3D0Mt2u0T4ZBu53vhxz-16">
          <mxGeometry relative="1" as="geometry" />
        </mxCell>
        <mxCell id="n3D0Mt2u0T4ZBu53vhxz-18" value="payment" style="rounded=0;whiteSpace=wrap;html=1;" vertex="1" parent="WIyWlLk6GJQsqaUBKTNV-1">
          <mxGeometry x="1255" y="2230" width="90" height="40" as="geometry" />
        </mxCell>
        <mxCell id="n3D0Mt2u0T4ZBu53vhxz-21" style="edgeStyle=orthogonalEdgeStyle;rounded=0;orthogonalLoop=1;jettySize=auto;html=1;exitX=1;exitY=1;exitDx=0;exitDy=0;entryX=0;entryY=0;entryDx=0;entryDy=0;endArrow=none;endFill=0;" edge="1" parent="WIyWlLk6GJQsqaUBKTNV-1" source="n3D0Mt2u0T4ZBu53vhxz-20" target="n3D0Mt2u0T4ZBu53vhxz-18">
          <mxGeometry relative="1" as="geometry" />
        </mxCell>
        <mxCell id="n3D0Mt2u0T4ZBu53vhxz-20" value="&lt;u&gt;transaction id&lt;/u&gt;" style="ellipse;whiteSpace=wrap;html=1;" vertex="1" parent="WIyWlLk6GJQsqaUBKTNV-1">
          <mxGeometry x="1130" y="2170" width="90" height="50" as="geometry" />
        </mxCell>
        <mxCell id="n3D0Mt2u0T4ZBu53vhxz-27" style="edgeStyle=orthogonalEdgeStyle;rounded=0;orthogonalLoop=1;jettySize=auto;html=1;exitX=1;exitY=0;exitDx=0;exitDy=0;entryX=0;entryY=0.5;entryDx=0;entryDy=0;endArrow=none;endFill=0;" edge="1" parent="WIyWlLk6GJQsqaUBKTNV-1" source="n3D0Mt2u0T4ZBu53vhxz-22" target="n3D0Mt2u0T4ZBu53vhxz-18">
          <mxGeometry relative="1" as="geometry" />
        </mxCell>
        <mxCell id="n3D0Mt2u0T4ZBu53vhxz-22" value="Card holder name" style="ellipse;whiteSpace=wrap;html=1;" vertex="1" parent="WIyWlLk6GJQsqaUBKTNV-1">
          <mxGeometry x="1120" y="2250" width="90" height="60" as="geometry" />
        </mxCell>
        <mxCell id="n3D0Mt2u0T4ZBu53vhxz-28" style="edgeStyle=orthogonalEdgeStyle;rounded=0;orthogonalLoop=1;jettySize=auto;html=1;exitX=1;exitY=0;exitDx=0;exitDy=0;entryX=0;entryY=1;entryDx=0;entryDy=0;endArrow=none;endFill=0;" edge="1" parent="WIyWlLk6GJQsqaUBKTNV-1" source="n3D0Mt2u0T4ZBu53vhxz-23" target="n3D0Mt2u0T4ZBu53vhxz-18">
          <mxGeometry relative="1" as="geometry" />
        </mxCell>
        <mxCell id="n3D0Mt2u0T4ZBu53vhxz-23" value="card number" style="ellipse;whiteSpace=wrap;html=1;" vertex="1" parent="WIyWlLk6GJQsqaUBKTNV-1">
          <mxGeometry x="1172.5" y="2310" width="87.5" height="50" as="geometry" />
        </mxCell>
        <mxCell id="n3D0Mt2u0T4ZBu53vhxz-29" style="edgeStyle=orthogonalEdgeStyle;rounded=0;orthogonalLoop=1;jettySize=auto;html=1;exitX=0.5;exitY=0;exitDx=0;exitDy=0;entryX=0.5;entryY=1;entryDx=0;entryDy=0;endArrow=none;endFill=0;" edge="1" parent="WIyWlLk6GJQsqaUBKTNV-1" source="n3D0Mt2u0T4ZBu53vhxz-24" target="n3D0Mt2u0T4ZBu53vhxz-18">
          <mxGeometry relative="1" as="geometry" />
        </mxCell>
        <mxCell id="n3D0Mt2u0T4ZBu53vhxz-24" value="cvc" style="ellipse;whiteSpace=wrap;html=1;" vertex="1" parent="WIyWlLk6GJQsqaUBKTNV-1">
          <mxGeometry x="1280" y="2310" width="80" height="50" as="geometry" />
        </mxCell>
        <mxCell id="n3D0Mt2u0T4ZBu53vhxz-26" style="edgeStyle=orthogonalEdgeStyle;rounded=0;orthogonalLoop=1;jettySize=auto;html=1;exitX=0.5;exitY=1;exitDx=0;exitDy=0;entryX=0.5;entryY=0;entryDx=0;entryDy=0;endArrow=none;endFill=0;" edge="1" parent="WIyWlLk6GJQsqaUBKTNV-1" source="n3D0Mt2u0T4ZBu53vhxz-25" target="n3D0Mt2u0T4ZBu53vhxz-18">
          <mxGeometry relative="1" as="geometry" />
        </mxCell>
        <mxCell id="n3D0Mt2u0T4ZBu53vhxz-25" value="card expiry date" style="ellipse;whiteSpace=wrap;html=1;" vertex="1" parent="WIyWlLk6GJQsqaUBKTNV-1">
          <mxGeometry x="1250" y="2130" width="80" height="50" as="geometry" />
        </mxCell>
        <mxCell id="skpK02PhZIWO-Kw9qIxO-6" value="&lt;blockquote style=&quot;margin: 0 0 0 40px; border: none; padding: 0px;&quot;&gt;1&lt;/blockquote&gt;" style="text;html=1;align=center;verticalAlign=middle;resizable=0;points=[];autosize=1;strokeColor=none;fillColor=none;" vertex="1" parent="WIyWlLk6GJQsqaUBKTNV-1">
          <mxGeometry x="1300" y="2220" width="70" height="30" as="geometry" />
        </mxCell>
        <mxCell id="skpK02PhZIWO-Kw9qIxO-7" value="N" style="text;html=1;align=center;verticalAlign=middle;resizable=0;points=[];autosize=1;strokeColor=none;fillColor=none;" vertex="1" parent="WIyWlLk6GJQsqaUBKTNV-1">
          <mxGeometry x="1520" y="2220" width="30" height="30" as="geometry" />
        </mxCell>
        <mxCell id="skpK02PhZIWO-Kw9qIxO-8" value="We assume that you can pay more than one booking in one go but you cannot pay a booking by different accounts" style="text;html=1;align=center;verticalAlign=middle;resizable=0;points=[];autosize=1;strokeColor=none;fillColor=none;" vertex="1" parent="WIyWlLk6GJQsqaUBKTNV-1">
          <mxGeometry x="267.5" y="3140" width="630" height="30" as="geometry" />
        </mxCell>
        <mxCell id="n3D0Mt2u0T4ZBu53vhxz-33" style="edgeStyle=orthogonalEdgeStyle;rounded=0;orthogonalLoop=1;jettySize=auto;html=1;exitX=0.5;exitY=1;exitDx=0;exitDy=0;entryX=0;entryY=0.5;entryDx=0;entryDy=0;endArrow=none;endFill=0;" edge="1" parent="WIyWlLk6GJQsqaUBKTNV-1" source="n3D0Mt2u0T4ZBu53vhxz-31" target="WIyWlLk6GJQsqaUBKTNV-7">
          <mxGeometry relative="1" as="geometry">
            <Array as="points">
              <mxPoint x="1868" y="2230" />
              <mxPoint x="2060" y="2230" />
            </Array>
          </mxGeometry>
        </mxCell>
        <mxCell id="n3D0Mt2u0T4ZBu53vhxz-31" value="reservation on passenger" style="rhombus;whiteSpace=wrap;html=1;" vertex="1" parent="WIyWlLk6GJQsqaUBKTNV-1">
          <mxGeometry x="1820" y="1890" width="95" height="90" as="geometry" />
        </mxCell>
        <mxCell id="n3D0Mt2u0T4ZBu53vhxz-39" value="Contact person" style="rounded=1;whiteSpace=wrap;html=1;" vertex="1" parent="WIyWlLk6GJQsqaUBKTNV-1">
          <mxGeometry x="1680" y="2030" width="120" height="60" as="geometry" />
        </mxCell>
        <mxCell id="n3D0Mt2u0T4ZBu53vhxz-48" style="edgeStyle=orthogonalEdgeStyle;rounded=0;orthogonalLoop=1;jettySize=auto;html=1;exitX=1;exitY=0.75;exitDx=0;exitDy=0;entryX=0;entryY=0.25;entryDx=0;entryDy=0;endArrow=none;endFill=0;" edge="1" parent="WIyWlLk6GJQsqaUBKTNV-1" source="n3D0Mt2u0T4ZBu53vhxz-39" target="WIyWlLk6GJQsqaUBKTNV-7">
          <mxGeometry relative="1" as="geometry" />
        </mxCell>
        <mxCell id="skpK02PhZIWO-Kw9qIxO-12" value="" style="edgeStyle=orthogonalEdgeStyle;rounded=0;orthogonalLoop=1;jettySize=auto;html=1;entryX=1;entryY=0.5;entryDx=0;entryDy=0;endArrow=none;endFill=0;" edge="1" parent="WIyWlLk6GJQsqaUBKTNV-1" source="skpK02PhZIWO-Kw9qIxO-10" target="n3D0Mt2u0T4ZBu53vhxz-6">
          <mxGeometry relative="1" as="geometry">
            <Array as="points">
              <mxPoint x="1820" y="2310" />
              <mxPoint x="1820" y="2250" />
            </Array>
          </mxGeometry>
        </mxCell>
        <mxCell id="skpK02PhZIWO-Kw9qIxO-10" value="Ticket" style="rhombus;whiteSpace=wrap;html=1;rounded=1;glass=0;strokeWidth=1;shadow=0;" vertex="1" parent="WIyWlLk6GJQsqaUBKTNV-1">
          <mxGeometry x="1870" y="2270" width="80" height="80" as="geometry" />
        </mxCell>
        <mxCell id="n3D0Mt2u0T4ZBu53vhxz-42" style="edgeStyle=orthogonalEdgeStyle;rounded=0;orthogonalLoop=1;jettySize=auto;html=1;exitX=0.5;exitY=0;exitDx=0;exitDy=0;entryX=0.25;entryY=1;entryDx=0;entryDy=0;endArrow=none;endFill=0;" edge="1" parent="WIyWlLk6GJQsqaUBKTNV-1" source="n3D0Mt2u0T4ZBu53vhxz-40" target="n3D0Mt2u0T4ZBu53vhxz-39">
          <mxGeometry relative="1" as="geometry" />
        </mxCell>
        <mxCell id="n3D0Mt2u0T4ZBu53vhxz-40" value="Phone number" style="ellipse;whiteSpace=wrap;html=1;" vertex="1" parent="WIyWlLk6GJQsqaUBKTNV-1">
          <mxGeometry x="1650" y="2125" width="80" height="50" as="geometry" />
        </mxCell>
        <mxCell id="n3D0Mt2u0T4ZBu53vhxz-43" style="edgeStyle=orthogonalEdgeStyle;rounded=0;orthogonalLoop=1;jettySize=auto;html=1;exitX=0.5;exitY=0;exitDx=0;exitDy=0;entryX=0.75;entryY=1;entryDx=0;entryDy=0;endArrow=none;endFill=0;" edge="1" parent="WIyWlLk6GJQsqaUBKTNV-1" source="n3D0Mt2u0T4ZBu53vhxz-41" target="n3D0Mt2u0T4ZBu53vhxz-39">
          <mxGeometry relative="1" as="geometry" />
        </mxCell>
        <mxCell id="n3D0Mt2u0T4ZBu53vhxz-41" value="&lt;u&gt;Email adress&lt;/u&gt;" style="ellipse;whiteSpace=wrap;html=1;" vertex="1" parent="WIyWlLk6GJQsqaUBKTNV-1">
          <mxGeometry x="1742.5" y="2120" width="80" height="60" as="geometry" />
        </mxCell>
        <mxCell id="skpK02PhZIWO-Kw9qIxO-15" value="Ticket id" style="ellipse;whiteSpace=wrap;html=1;rounded=1;glass=0;strokeWidth=1;shadow=0;fontStyle=4" vertex="1" parent="WIyWlLk6GJQsqaUBKTNV-1">
          <mxGeometry x="1865" y="2390" width="90" height="50" as="geometry" />
        </mxCell>
        <mxCell id="n3D0Mt2u0T4ZBu53vhxz-44" value="has" style="rhombus;whiteSpace=wrap;html=1;" vertex="1" parent="WIyWlLk6GJQsqaUBKTNV-1">
          <mxGeometry x="1640" y="1960" width="60" height="50" as="geometry" />
        </mxCell>
        <mxCell id="n3D0Mt2u0T4ZBu53vhxz-46" style="edgeStyle=orthogonalEdgeStyle;rounded=0;orthogonalLoop=1;jettySize=auto;html=1;exitX=1;exitY=0.5;exitDx=0;exitDy=0;entryX=0.5;entryY=0;entryDx=0;entryDy=0;endArrow=none;endFill=0;" edge="1" parent="WIyWlLk6GJQsqaUBKTNV-1" source="n3D0Mt2u0T4ZBu53vhxz-44" target="n3D0Mt2u0T4ZBu53vhxz-39">
          <mxGeometry relative="1" as="geometry" />
        </mxCell>
        <mxCell id="skpK02PhZIWO-Kw9qIxO-18" value="1" style="edgeLabel;html=1;align=center;verticalAlign=middle;resizable=0;points=[];" connectable="0" vertex="1" parent="n3D0Mt2u0T4ZBu53vhxz-46">
          <mxGeometry x="0.6052" y="9" relative="1" as="geometry">
            <mxPoint y="-1" as="offset" />
          </mxGeometry>
        </mxCell>
        <mxCell id="skpK02PhZIWO-Kw9qIxO-16" value="" style="edgeStyle=orthogonalEdgeStyle;rounded=0;orthogonalLoop=1;jettySize=auto;html=1;endArrow=none;endFill=0;" edge="1" parent="WIyWlLk6GJQsqaUBKTNV-1" source="skpK02PhZIWO-Kw9qIxO-10" target="skpK02PhZIWO-Kw9qIxO-15">
          <mxGeometry relative="1" as="geometry" />
        </mxCell>
        <mxCell id="n3D0Mt2u0T4ZBu53vhxz-49" value="We furthermore assume that a contact person is a subtype of passenger since they are a passenger but has one more role of being a contact person" style="text;html=1;align=center;verticalAlign=middle;resizable=0;points=[];autosize=1;strokeColor=none;fillColor=none;" vertex="1" parent="WIyWlLk6GJQsqaUBKTNV-1">
          <mxGeometry x="260" y="3170" width="810" height="30" as="geometry" />
        </mxCell>
        <mxCell id="skpK02PhZIWO-Kw9qIxO-17" value="N" style="text;html=1;align=center;verticalAlign=middle;resizable=0;points=[];autosize=1;strokeColor=none;fillColor=none;" vertex="1" parent="WIyWlLk6GJQsqaUBKTNV-1">
          <mxGeometry x="1495" y="1958" width="30" height="30" as="geometry" />
        </mxCell>
        <mxCell id="skpK02PhZIWO-Kw9qIxO-20" value="1" style="text;html=1;align=center;verticalAlign=middle;resizable=0;points=[];autosize=1;strokeColor=none;fillColor=none;" vertex="1" parent="WIyWlLk6GJQsqaUBKTNV-1">
          <mxGeometry x="1675" y="2220" width="30" height="30" as="geometry" />
        </mxCell>
        <mxCell id="skpK02PhZIWO-Kw9qIxO-23" value="N" style="text;html=1;align=center;verticalAlign=middle;resizable=0;points=[];autosize=1;strokeColor=none;fillColor=none;" vertex="1" parent="WIyWlLk6GJQsqaUBKTNV-1">
          <mxGeometry x="2095" y="2250" width="30" height="30" as="geometry" />
        </mxCell>
        <mxCell id="skpK02PhZIWO-Kw9qIxO-24" value="1" style="text;html=1;align=center;verticalAlign=middle;resizable=0;points=[];autosize=1;strokeColor=none;fillColor=none;" vertex="1" parent="WIyWlLk6GJQsqaUBKTNV-1">
          <mxGeometry x="1315" y="1668" width="30" height="30" as="geometry" />
        </mxCell>
        <mxCell id="skpK02PhZIWO-Kw9qIxO-25" value="M" style="text;html=1;align=center;verticalAlign=middle;resizable=0;points=[];autosize=1;strokeColor=none;fillColor=none;" vertex="1" parent="WIyWlLk6GJQsqaUBKTNV-1">
          <mxGeometry x="1395" y="1938" width="30" height="30" as="geometry" />
        </mxCell>
        <mxCell id="skpK02PhZIWO-Kw9qIxO-26" value="K" style="text;html=1;align=center;verticalAlign=middle;resizable=0;points=[];autosize=1;strokeColor=none;fillColor=none;" vertex="1" parent="WIyWlLk6GJQsqaUBKTNV-1">
          <mxGeometry x="1485" y="1908" width="30" height="30" as="geometry" />
        </mxCell>
        <mxCell id="skpK02PhZIWO-Kw9qIxO-27" value="M" style="text;html=1;align=center;verticalAlign=middle;resizable=0;points=[];autosize=1;strokeColor=none;fillColor=none;" vertex="1" parent="WIyWlLk6GJQsqaUBKTNV-1">
          <mxGeometry x="2030" y="2210" width="30" height="30" as="geometry" />
        </mxCell>
        <mxCell id="skpK02PhZIWO-Kw9qIxO-28" value="1" style="text;html=1;align=center;verticalAlign=middle;resizable=0;points=[];autosize=1;strokeColor=none;fillColor=none;" vertex="1" parent="WIyWlLk6GJQsqaUBKTNV-1">
          <mxGeometry x="495" y="1708" width="30" height="30" as="geometry" />
        </mxCell>
        <mxCell id="n3D0Mt2u0T4ZBu53vhxz-53" value="We assume that an airport can have 0 routes like Oskarshamns airport that has been permentaly closed :)" style="text;html=1;align=center;verticalAlign=middle;resizable=0;points=[];autosize=1;strokeColor=none;fillColor=none;" vertex="1" parent="WIyWlLk6GJQsqaUBKTNV-1">
          <mxGeometry x="260" y="3200" width="590" height="30" as="geometry" />
        </mxCell>
        <mxCell id="n3D0Mt2u0T4ZBu53vhxz-54" value="1" style="text;html=1;align=center;verticalAlign=middle;resizable=0;points=[];autosize=1;strokeColor=none;fillColor=none;" vertex="1" parent="WIyWlLk6GJQsqaUBKTNV-1">
          <mxGeometry x="860" y="1650" width="30" height="30" as="geometry" />
        </mxCell>
        <mxCell id="n3D0Mt2u0T4ZBu53vhxz-55" value="N" style="text;html=1;align=center;verticalAlign=middle;resizable=0;points=[];autosize=1;strokeColor=none;fillColor=none;" vertex="1" parent="WIyWlLk6GJQsqaUBKTNV-1">
          <mxGeometry x="1165" y="1650" width="30" height="30" as="geometry" />
        </mxCell>
        <mxCell id="vwgwBciPisruSyK_WmpG-18" value="Week" style="rounded=0;whiteSpace=wrap;html=1;" vertex="1" parent="WIyWlLk6GJQsqaUBKTNV-1">
          <mxGeometry x="2560" y="1040" width="100" height="40" as="geometry" />
        </mxCell>
        <mxCell id="NaPuGRy9ujqSuR9sPVXI-0" value="Flight" style="text;html=1;align=center;verticalAlign=middle;resizable=0;points=[];autosize=1;strokeColor=none;fillColor=none;" vertex="1" parent="WIyWlLk6GJQsqaUBKTNV-1">
          <mxGeometry x="2560" y="1000" width="50" height="30" as="geometry" />
        </mxCell>
        <mxCell id="NaPuGRy9ujqSuR9sPVXI-1" value="Reservation" style="text;html=1;align=center;verticalAlign=middle;resizable=0;points=[];autosize=1;strokeColor=none;fillColor=none;" vertex="1" parent="WIyWlLk6GJQsqaUBKTNV-1">
          <mxGeometry x="2560" y="1240" width="90" height="30" as="geometry" />
        </mxCell>
        <mxCell id="NaPuGRy9ujqSuR9sPVXI-2" value="Booking" style="text;html=1;align=center;verticalAlign=middle;resizable=0;points=[];autosize=1;strokeColor=none;fillColor=none;" vertex="1" parent="WIyWlLk6GJQsqaUBKTNV-1">
          <mxGeometry x="2560" y="1160" width="70" height="30" as="geometry" />
        </mxCell>
        <mxCell id="NaPuGRy9ujqSuR9sPVXI-3" value="Contact person&lt;br&gt;" style="text;html=1;align=center;verticalAlign=middle;resizable=0;points=[];autosize=1;strokeColor=none;fillColor=none;" vertex="1" parent="WIyWlLk6GJQsqaUBKTNV-1">
          <mxGeometry x="2560" y="1560" width="100" height="30" as="geometry" />
        </mxCell>
        <mxCell id="NaPuGRy9ujqSuR9sPVXI-4" value="Passenger&lt;br&gt;" style="text;strokeColor=none;align=center;fillColor=none;html=1;verticalAlign=middle;whiteSpace=wrap;rounded=0;" vertex="1" parent="WIyWlLk6GJQsqaUBKTNV-1">
          <mxGeometry x="2560" y="1320" width="60" height="30" as="geometry" />
        </mxCell>
        <mxCell id="NaPuGRy9ujqSuR9sPVXI-5" value="Schedule&lt;br&gt;" style="text;html=1;align=center;verticalAlign=middle;resizable=0;points=[];autosize=1;strokeColor=none;fillColor=none;" vertex="1" parent="WIyWlLk6GJQsqaUBKTNV-1">
          <mxGeometry x="2555" y="1500" width="70" height="30" as="geometry" />
        </mxCell>
        <mxCell id="NaPuGRy9ujqSuR9sPVXI-6" value="Route&lt;br&gt;" style="text;html=1;align=center;verticalAlign=middle;resizable=0;points=[];autosize=1;strokeColor=none;fillColor=none;" vertex="1" parent="WIyWlLk6GJQsqaUBKTNV-1">
          <mxGeometry x="2560" y="1400" width="60" height="30" as="geometry" />
        </mxCell>
        <mxCell id="NaPuGRy9ujqSuR9sPVXI-7" value="Airport" style="text;html=1;align=center;verticalAlign=middle;resizable=0;points=[];autosize=1;strokeColor=none;fillColor=none;" vertex="1" parent="WIyWlLk6GJQsqaUBKTNV-1">
          <mxGeometry x="2560" y="1080" width="60" height="30" as="geometry" />
        </mxCell>
        <mxCell id="NaPuGRy9ujqSuR9sPVXI-8" value="Payment&lt;br&gt;" style="text;html=1;align=center;verticalAlign=middle;resizable=0;points=[];autosize=1;strokeColor=none;fillColor=none;" vertex="1" parent="WIyWlLk6GJQsqaUBKTNV-1">
          <mxGeometry x="2560" y="1640" width="70" height="30" as="geometry" />
        </mxCell>
        <mxCell id="NaPuGRy9ujqSuR9sPVXI-9" value="&lt;u&gt;Flightnumber&lt;/u&gt;" style="rounded=0;whiteSpace=wrap;html=1;" vertex="1" parent="WIyWlLk6GJQsqaUBKTNV-1">
          <mxGeometry x="2660" y="1040" width="100" height="40" as="geometry" />
        </mxCell>
        <mxCell id="NaPuGRy9ujqSuR9sPVXI-10" value="Number of seats" style="rounded=0;whiteSpace=wrap;html=1;" vertex="1" parent="WIyWlLk6GJQsqaUBKTNV-1">
          <mxGeometry x="2760" y="1040" width="100" height="40" as="geometry" />
        </mxCell>
        <mxCell id="NaPuGRy9ujqSuR9sPVXI-11" value="Name of Airport" style="rounded=0;whiteSpace=wrap;html=1;" vertex="1" parent="WIyWlLk6GJQsqaUBKTNV-1">
          <mxGeometry x="2560" y="1120" width="100" height="40" as="geometry" />
        </mxCell>
        <mxCell id="NaPuGRy9ujqSuR9sPVXI-12" value="&lt;u&gt;Code&lt;/u&gt;" style="rounded=0;whiteSpace=wrap;html=1;" vertex="1" parent="WIyWlLk6GJQsqaUBKTNV-1">
          <mxGeometry x="2660" y="1120" width="100" height="40" as="geometry" />
        </mxCell>
        <mxCell id="NaPuGRy9ujqSuR9sPVXI-13" value="Country" style="rounded=0;whiteSpace=wrap;html=1;" vertex="1" parent="WIyWlLk6GJQsqaUBKTNV-1">
          <mxGeometry x="2760" y="1120" width="100" height="40" as="geometry" />
        </mxCell>
        <mxCell id="NaPuGRy9ujqSuR9sPVXI-15" value="Price by fomula" style="rounded=0;whiteSpace=wrap;html=1;" vertex="1" parent="WIyWlLk6GJQsqaUBKTNV-1">
          <mxGeometry x="2560" y="1200" width="100" height="40" as="geometry" />
        </mxCell>
        <mxCell id="NaPuGRy9ujqSuR9sPVXI-16" value="&lt;u&gt;Payment Transaction ID&lt;/u&gt;" style="rounded=0;whiteSpace=wrap;html=1;" vertex="1" parent="WIyWlLk6GJQsqaUBKTNV-1">
          <mxGeometry x="2660" y="1200" width="100" height="40" as="geometry" />
        </mxCell>
        <mxCell id="NaPuGRy9ujqSuR9sPVXI-19" value="Seats number" style="rounded=0;whiteSpace=wrap;html=1;" vertex="1" parent="WIyWlLk6GJQsqaUBKTNV-1">
          <mxGeometry x="2560" y="1280" width="100" height="40" as="geometry" />
        </mxCell>
        <mxCell id="NaPuGRy9ujqSuR9sPVXI-20" value="&lt;u&gt;reservation number&lt;/u&gt;" style="rounded=0;whiteSpace=wrap;html=1;" vertex="1" parent="WIyWlLk6GJQsqaUBKTNV-1">
          <mxGeometry x="2660" y="1280" width="100" height="40" as="geometry" />
        </mxCell>
        <mxCell id="NaPuGRy9ujqSuR9sPVXI-22" value="&lt;u&gt;Passport number&lt;/u&gt;" style="rounded=0;whiteSpace=wrap;html=1;" vertex="1" parent="WIyWlLk6GJQsqaUBKTNV-1">
          <mxGeometry x="2560" y="1360" width="100" height="40" as="geometry" />
        </mxCell>
        <mxCell id="NaPuGRy9ujqSuR9sPVXI-24" value="First name" style="rounded=0;whiteSpace=wrap;html=1;" vertex="1" parent="WIyWlLk6GJQsqaUBKTNV-1">
          <mxGeometry x="2660" y="1360" width="100" height="40" as="geometry" />
        </mxCell>
        <mxCell id="NaPuGRy9ujqSuR9sPVXI-25" value="Middle name" style="rounded=0;whiteSpace=wrap;html=1;" vertex="1" parent="WIyWlLk6GJQsqaUBKTNV-1">
          <mxGeometry x="2760" y="1360" width="100" height="40" as="geometry" />
        </mxCell>
        <mxCell id="NaPuGRy9ujqSuR9sPVXI-26" value="Last name" style="rounded=0;whiteSpace=wrap;html=1;" vertex="1" parent="WIyWlLk6GJQsqaUBKTNV-1">
          <mxGeometry x="2860" y="1360" width="100" height="40" as="geometry" />
        </mxCell>
        <mxCell id="NaPuGRy9ujqSuR9sPVXI-27" value="&lt;u&gt;Unique ID&lt;/u&gt;" style="rounded=0;whiteSpace=wrap;html=1;" vertex="1" parent="WIyWlLk6GJQsqaUBKTNV-1">
          <mxGeometry x="2560" y="1440" width="100" height="40" as="geometry" />
        </mxCell>
        <mxCell id="NaPuGRy9ujqSuR9sPVXI-28" value="Price for route" style="rounded=0;whiteSpace=wrap;html=1;" vertex="1" parent="WIyWlLk6GJQsqaUBKTNV-1">
          <mxGeometry x="2660" y="1440" width="100" height="40" as="geometry" />
        </mxCell>
        <mxCell id="NaPuGRy9ujqSuR9sPVXI-29" value="&lt;u&gt;Id&lt;/u&gt;" style="rounded=0;whiteSpace=wrap;html=1;" vertex="1" parent="WIyWlLk6GJQsqaUBKTNV-1">
          <mxGeometry x="2560" y="1520" width="100" height="40" as="geometry" />
        </mxCell>
        <mxCell id="NaPuGRy9ujqSuR9sPVXI-30" value="depature time" style="rounded=0;whiteSpace=wrap;html=1;" vertex="1" parent="WIyWlLk6GJQsqaUBKTNV-1">
          <mxGeometry x="2660" y="1520" width="100" height="40" as="geometry" />
        </mxCell>
        <mxCell id="NaPuGRy9ujqSuR9sPVXI-32" value="year" style="rounded=0;whiteSpace=wrap;html=1;" vertex="1" parent="WIyWlLk6GJQsqaUBKTNV-1">
          <mxGeometry x="2760" y="1520" width="100" height="40" as="geometry" />
        </mxCell>
        <mxCell id="NaPuGRy9ujqSuR9sPVXI-33" value="day" style="rounded=0;whiteSpace=wrap;html=1;" vertex="1" parent="WIyWlLk6GJQsqaUBKTNV-1">
          <mxGeometry x="2850" y="1520" width="100" height="40" as="geometry" />
        </mxCell>
        <mxCell id="NaPuGRy9ujqSuR9sPVXI-34" value="Phone number" style="rounded=0;whiteSpace=wrap;html=1;" vertex="1" parent="WIyWlLk6GJQsqaUBKTNV-1">
          <mxGeometry x="2560" y="1600" width="100" height="40" as="geometry" />
        </mxCell>
        <mxCell id="NaPuGRy9ujqSuR9sPVXI-35" value="&lt;u&gt;Email adress&lt;/u&gt;" style="rounded=0;whiteSpace=wrap;html=1;" vertex="1" parent="WIyWlLk6GJQsqaUBKTNV-1">
          <mxGeometry x="2660" y="1600" width="100" height="40" as="geometry" />
        </mxCell>
        <mxCell id="NaPuGRy9ujqSuR9sPVXI-36" value="" style="endArrow=none;html=1;rounded=0;dashed=1;dashPattern=1 2;" edge="1" parent="WIyWlLk6GJQsqaUBKTNV-1">
          <mxGeometry relative="1" as="geometry">
            <mxPoint x="2880" y="1390" as="sourcePoint" />
            <mxPoint x="2940" y="1390" as="targetPoint" />
            <Array as="points" />
          </mxGeometry>
        </mxCell>
        <mxCell id="NaPuGRy9ujqSuR9sPVXI-37" value="" style="resizable=0;html=1;whiteSpace=wrap;align=right;verticalAlign=bottom;" connectable="0" vertex="1" parent="NaPuGRy9ujqSuR9sPVXI-36">
          <mxGeometry x="1" relative="1" as="geometry" />
        </mxCell>
        <mxCell id="NaPuGRy9ujqSuR9sPVXI-39" style="edgeStyle=orthogonalEdgeStyle;rounded=0;orthogonalLoop=1;jettySize=auto;html=1;entryX=0.5;entryY=0;entryDx=0;entryDy=0;startArrow=classic;startFill=1;endArrow=none;endFill=0;" edge="1" parent="WIyWlLk6GJQsqaUBKTNV-1" source="vwgwBciPisruSyK_WmpG-32" target="NaPuGRy9ujqSuR9sPVXI-16">
          <mxGeometry relative="1" as="geometry">
            <Array as="points">
              <mxPoint x="2420" y="1690" />
              <mxPoint x="2420" y="1180" />
              <mxPoint x="2710" y="1180" />
            </Array>
          </mxGeometry>
        </mxCell>
        <mxCell id="vwgwBciPisruSyK_WmpG-32" value="&lt;u&gt;Transaction ID&lt;/u&gt;" style="rounded=0;whiteSpace=wrap;html=1;" vertex="1" parent="WIyWlLk6GJQsqaUBKTNV-1">
          <mxGeometry x="2560" y="1670" width="100" height="40" as="geometry" />
        </mxCell>
        <mxCell id="vwgwBciPisruSyK_WmpG-33" value="Card expiry date" style="rounded=0;whiteSpace=wrap;html=1;" vertex="1" parent="WIyWlLk6GJQsqaUBKTNV-1">
          <mxGeometry x="2660" y="1670" width="100" height="40" as="geometry" />
        </mxCell>
        <mxCell id="vwgwBciPisruSyK_WmpG-34" value="Card holder name" style="rounded=0;whiteSpace=wrap;html=1;" vertex="1" parent="WIyWlLk6GJQsqaUBKTNV-1">
          <mxGeometry x="2760" y="1670" width="100" height="40" as="geometry" />
        </mxCell>
        <mxCell id="vwgwBciPisruSyK_WmpG-35" value="Card number" style="rounded=0;whiteSpace=wrap;html=1;" vertex="1" parent="WIyWlLk6GJQsqaUBKTNV-1">
          <mxGeometry x="2860" y="1670" width="100" height="40" as="geometry" />
        </mxCell>
        <mxCell id="vwgwBciPisruSyK_WmpG-36" value="Cvc" style="rounded=0;whiteSpace=wrap;html=1;" vertex="1" parent="WIyWlLk6GJQsqaUBKTNV-1">
          <mxGeometry x="2960" y="1670" width="100" height="40" as="geometry" />
        </mxCell>
        <mxCell id="vwgwBciPisruSyK_WmpG-37" value="&lt;u&gt;Route Unique ID&lt;/u&gt;" style="rounded=0;whiteSpace=wrap;html=1;" vertex="1" parent="WIyWlLk6GJQsqaUBKTNV-1">
          <mxGeometry x="2860" y="1120" width="100" height="40" as="geometry" />
        </mxCell>
        <mxCell id="vwgwBciPisruSyK_WmpG-38" value="Route Price for Route" style="rounded=0;whiteSpace=wrap;html=1;" vertex="1" parent="WIyWlLk6GJQsqaUBKTNV-1">
          <mxGeometry x="2960" y="1120" width="100" height="40" as="geometry" />
        </mxCell>
        <mxCell id="vwgwBciPisruSyK_WmpG-39" value="Airport Name of aiport" style="rounded=0;whiteSpace=wrap;html=1;" vertex="1" parent="WIyWlLk6GJQsqaUBKTNV-1">
          <mxGeometry x="2760" y="1440" width="100" height="40" as="geometry" />
        </mxCell>
        <mxCell id="vwgwBciPisruSyK_WmpG-40" value="&lt;u&gt;Airport Code&lt;/u&gt;" style="rounded=0;whiteSpace=wrap;html=1;" vertex="1" parent="WIyWlLk6GJQsqaUBKTNV-1">
          <mxGeometry x="2860" y="1440" width="100" height="40" as="geometry" />
        </mxCell>
        <mxCell id="vwgwBciPisruSyK_WmpG-41" value="Country" style="rounded=0;whiteSpace=wrap;html=1;" vertex="1" parent="WIyWlLk6GJQsqaUBKTNV-1">
          <mxGeometry x="2960" y="1440" width="100" height="40" as="geometry" />
        </mxCell>
        <mxCell id="vwgwBciPisruSyK_WmpG-42" value="" style="endArrow=none;html=1;rounded=0;" edge="1" parent="WIyWlLk6GJQsqaUBKTNV-1">
          <mxGeometry width="50" height="50" relative="1" as="geometry">
            <mxPoint x="2910" y="1470" as="sourcePoint" />
            <mxPoint x="2460" y="1500" as="targetPoint" />
            <Array as="points">
              <mxPoint x="2910" y="1500" />
            </Array>
          </mxGeometry>
        </mxCell>
        <mxCell id="vwgwBciPisruSyK_WmpG-43" value="" style="endArrow=none;html=1;rounded=0;" edge="1" parent="WIyWlLk6GJQsqaUBKTNV-1">
          <mxGeometry width="50" height="50" relative="1" as="geometry">
            <mxPoint x="2460" y="1500" as="sourcePoint" />
            <mxPoint x="2460" y="1110" as="targetPoint" />
          </mxGeometry>
        </mxCell>
        <mxCell id="vwgwBciPisruSyK_WmpG-44" value="" style="endArrow=classic;html=1;rounded=0;entryX=0.5;entryY=0;entryDx=0;entryDy=0;endFill=1;" edge="1" parent="WIyWlLk6GJQsqaUBKTNV-1" target="NaPuGRy9ujqSuR9sPVXI-12">
          <mxGeometry width="50" height="50" relative="1" as="geometry">
            <mxPoint x="2460" y="1110" as="sourcePoint" />
            <mxPoint x="2960" y="1340" as="targetPoint" />
          </mxGeometry>
        </mxCell>
        <mxCell id="vwgwBciPisruSyK_WmpG-45" value="Route Price for route" style="rounded=0;whiteSpace=wrap;html=1;" vertex="1" parent="WIyWlLk6GJQsqaUBKTNV-1">
          <mxGeometry x="2950" y="1520" width="100" height="40" as="geometry" />
        </mxCell>
        <mxCell id="vwgwBciPisruSyK_WmpG-46" value="&lt;u&gt;Route Unique ID&lt;/u&gt;" style="rounded=0;whiteSpace=wrap;html=1;" vertex="1" parent="WIyWlLk6GJQsqaUBKTNV-1">
          <mxGeometry x="3050" y="1520" width="100" height="40" as="geometry" />
        </mxCell>
        <mxCell id="vwgwBciPisruSyK_WmpG-50" value="" style="endArrow=classic;html=1;rounded=0;entryX=0.5;entryY=1;entryDx=0;entryDy=0;startArrow=none;startFill=0;endFill=1;" edge="1" parent="WIyWlLk6GJQsqaUBKTNV-1" target="NaPuGRy9ujqSuR9sPVXI-27">
          <mxGeometry width="50" height="50" relative="1" as="geometry">
            <mxPoint x="3100" y="1500" as="sourcePoint" />
            <mxPoint x="3050" y="1480" as="targetPoint" />
          </mxGeometry>
        </mxCell>
        <mxCell id="vwgwBciPisruSyK_WmpG-53" value="" style="endArrow=none;html=1;rounded=0;entryX=0.5;entryY=0;entryDx=0;entryDy=0;endFill=0;" edge="1" parent="WIyWlLk6GJQsqaUBKTNV-1" target="vwgwBciPisruSyK_WmpG-46">
          <mxGeometry width="50" height="50" relative="1" as="geometry">
            <mxPoint x="3100" y="1500" as="sourcePoint" />
            <mxPoint x="3050" y="1480" as="targetPoint" />
          </mxGeometry>
        </mxCell>
        <mxCell id="vwgwBciPisruSyK_WmpG-54" value="&lt;u&gt;Schedule ID&lt;/u&gt;" style="rounded=0;whiteSpace=wrap;html=1;" vertex="1" parent="WIyWlLk6GJQsqaUBKTNV-1">
          <mxGeometry x="2860" y="1040" width="100" height="40" as="geometry" />
        </mxCell>
        <mxCell id="vwgwBciPisruSyK_WmpG-55" value="Schedule year" style="rounded=0;whiteSpace=wrap;html=1;" vertex="1" parent="WIyWlLk6GJQsqaUBKTNV-1">
          <mxGeometry x="2960" y="1040" width="100" height="40" as="geometry" />
        </mxCell>
        <mxCell id="vwgwBciPisruSyK_WmpG-56" value="Schedule day" style="rounded=0;whiteSpace=wrap;html=1;" vertex="1" parent="WIyWlLk6GJQsqaUBKTNV-1">
          <mxGeometry x="3060" y="1040" width="100" height="40" as="geometry" />
        </mxCell>
        <mxCell id="vwgwBciPisruSyK_WmpG-57" value="Schedule depature times" style="rounded=0;whiteSpace=wrap;html=1;" vertex="1" parent="WIyWlLk6GJQsqaUBKTNV-1">
          <mxGeometry x="3160" y="1040" width="100" height="40" as="geometry" />
        </mxCell>
        <mxCell id="vwgwBciPisruSyK_WmpG-58" value="" style="endArrow=classic;html=1;rounded=0;entryX=0;entryY=0.5;entryDx=0;entryDy=0;endFill=1;" edge="1" parent="WIyWlLk6GJQsqaUBKTNV-1" target="NaPuGRy9ujqSuR9sPVXI-29">
          <mxGeometry width="50" height="50" relative="1" as="geometry">
            <mxPoint x="2330" y="1540" as="sourcePoint" />
            <mxPoint x="2950" y="1290" as="targetPoint" />
          </mxGeometry>
        </mxCell>
        <mxCell id="vwgwBciPisruSyK_WmpG-59" value="" style="endArrow=none;html=1;rounded=0;" edge="1" parent="WIyWlLk6GJQsqaUBKTNV-1">
          <mxGeometry width="50" height="50" relative="1" as="geometry">
            <mxPoint x="2330" y="1540" as="sourcePoint" />
            <mxPoint x="2330" y="960" as="targetPoint" />
          </mxGeometry>
        </mxCell>
        <mxCell id="vwgwBciPisruSyK_WmpG-60" value="" style="endArrow=none;html=1;rounded=0;" edge="1" parent="WIyWlLk6GJQsqaUBKTNV-1">
          <mxGeometry width="50" height="50" relative="1" as="geometry">
            <mxPoint x="2330" y="960" as="sourcePoint" />
            <mxPoint x="2920" y="960" as="targetPoint" />
          </mxGeometry>
        </mxCell>
        <mxCell id="vwgwBciPisruSyK_WmpG-61" value="" style="endArrow=none;html=1;rounded=0;endFill=0;startArrow=none;startFill=0;" edge="1" parent="WIyWlLk6GJQsqaUBKTNV-1" source="vwgwBciPisruSyK_WmpG-54">
          <mxGeometry width="50" height="50" relative="1" as="geometry">
            <mxPoint x="2670" y="1290" as="sourcePoint" />
            <mxPoint x="2920" y="960" as="targetPoint" />
          </mxGeometry>
        </mxCell>
        <mxCell id="vwgwBciPisruSyK_WmpG-62" value="&lt;u&gt;Flight Flightnumber&lt;/u&gt;" style="rounded=0;whiteSpace=wrap;html=1;" vertex="1" parent="WIyWlLk6GJQsqaUBKTNV-1">
          <mxGeometry x="2760" y="1280" width="100" height="40" as="geometry" />
        </mxCell>
        <mxCell id="vwgwBciPisruSyK_WmpG-63" value="Flight number of seats" style="rounded=0;whiteSpace=wrap;html=1;" vertex="1" parent="WIyWlLk6GJQsqaUBKTNV-1">
          <mxGeometry x="2860" y="1280" width="100" height="40" as="geometry" />
        </mxCell>
        <mxCell id="vwgwBciPisruSyK_WmpG-64" value="Flight week" style="rounded=0;whiteSpace=wrap;html=1;" vertex="1" parent="WIyWlLk6GJQsqaUBKTNV-1">
          <mxGeometry x="2960" y="1280" width="100" height="40" as="geometry" />
        </mxCell>
        <mxCell id="vwgwBciPisruSyK_WmpG-65" value="" style="endArrow=classic;html=1;rounded=0;entryX=0.5;entryY=1;entryDx=0;entryDy=0;startArrow=none;startFill=0;endFill=1;" edge="1" parent="WIyWlLk6GJQsqaUBKTNV-1" target="NaPuGRy9ujqSuR9sPVXI-9">
          <mxGeometry width="50" height="50" relative="1" as="geometry">
            <mxPoint x="2750" y="1100" as="sourcePoint" />
            <mxPoint x="2930" y="1210" as="targetPoint" />
          </mxGeometry>
        </mxCell>
        <mxCell id="vwgwBciPisruSyK_WmpG-66" value="" style="endArrow=none;html=1;rounded=0;" edge="1" parent="WIyWlLk6GJQsqaUBKTNV-1">
          <mxGeometry width="50" height="50" relative="1" as="geometry">
            <mxPoint x="3110" y="1100" as="sourcePoint" />
            <mxPoint x="2750" y="1100" as="targetPoint" />
          </mxGeometry>
        </mxCell>
        <mxCell id="vwgwBciPisruSyK_WmpG-67" value="" style="endArrow=none;html=1;rounded=0;" edge="1" parent="WIyWlLk6GJQsqaUBKTNV-1">
          <mxGeometry width="50" height="50" relative="1" as="geometry">
            <mxPoint x="3220" y="1250" as="sourcePoint" />
            <mxPoint x="3110" y="1100" as="targetPoint" />
          </mxGeometry>
        </mxCell>
        <mxCell id="vwgwBciPisruSyK_WmpG-68" value="" style="endArrow=none;html=1;rounded=0;" edge="1" parent="WIyWlLk6GJQsqaUBKTNV-1">
          <mxGeometry width="50" height="50" relative="1" as="geometry">
            <mxPoint x="2800" y="1260" as="sourcePoint" />
            <mxPoint x="3220" y="1250" as="targetPoint" />
          </mxGeometry>
        </mxCell>
        <mxCell id="vwgwBciPisruSyK_WmpG-69" value="" style="endArrow=none;html=1;rounded=0;exitX=0.5;exitY=0;exitDx=0;exitDy=0;endFill=0;startArrow=none;startFill=0;" edge="1" parent="WIyWlLk6GJQsqaUBKTNV-1" source="vwgwBciPisruSyK_WmpG-62">
          <mxGeometry width="50" height="50" relative="1" as="geometry">
            <mxPoint x="2880" y="1260" as="sourcePoint" />
            <mxPoint x="2800" y="1260" as="targetPoint" />
          </mxGeometry>
        </mxCell>
        <mxCell id="vwgwBciPisruSyK_WmpG-70" value="Contact Person Phone number" style="rounded=0;whiteSpace=wrap;html=1;" vertex="1" parent="WIyWlLk6GJQsqaUBKTNV-1">
          <mxGeometry x="3060" y="1280" width="100" height="40" as="geometry" />
        </mxCell>
        <mxCell id="vwgwBciPisruSyK_WmpG-71" value="&lt;u&gt;Contact person Email adress&lt;/u&gt;" style="rounded=0;whiteSpace=wrap;html=1;" vertex="1" parent="WIyWlLk6GJQsqaUBKTNV-1">
          <mxGeometry x="3160" y="1280" width="100" height="40" as="geometry" />
        </mxCell>
        <mxCell id="vwgwBciPisruSyK_WmpG-73" value="" style="endArrow=none;html=1;rounded=0;exitX=0.5;exitY=0;exitDx=0;exitDy=0;endFill=0;startArrow=classic;startFill=1;" edge="1" parent="WIyWlLk6GJQsqaUBKTNV-1" source="NaPuGRy9ujqSuR9sPVXI-35">
          <mxGeometry width="50" height="50" relative="1" as="geometry">
            <mxPoint x="2880" y="1450" as="sourcePoint" />
            <mxPoint x="2710" y="1580" as="targetPoint" />
          </mxGeometry>
        </mxCell>
        <mxCell id="vwgwBciPisruSyK_WmpG-74" value="" style="endArrow=none;html=1;rounded=0;" edge="1" parent="WIyWlLk6GJQsqaUBKTNV-1">
          <mxGeometry width="50" height="50" relative="1" as="geometry">
            <mxPoint x="2710" y="1580" as="sourcePoint" />
            <mxPoint x="3390" y="1580" as="targetPoint" />
          </mxGeometry>
        </mxCell>
        <mxCell id="TatnCOgZf_PBunOcpOZx-0" value="1" style="text;html=1;align=center;verticalAlign=middle;resizable=0;points=[];autosize=1;strokeColor=none;fillColor=none;" vertex="1" parent="WIyWlLk6GJQsqaUBKTNV-1">
          <mxGeometry x="1792.5" y="2050" width="30" height="30" as="geometry" />
        </mxCell>
        <mxCell id="vwgwBciPisruSyK_WmpG-78" value="Contact Person Phone number" style="rounded=0;whiteSpace=wrap;html=1;" vertex="1" parent="WIyWlLk6GJQsqaUBKTNV-1">
          <mxGeometry x="2960" y="1360" width="100" height="40" as="geometry" />
        </mxCell>
        <mxCell id="vwgwBciPisruSyK_WmpG-80" value="&lt;u&gt;Contact person Email adress&lt;/u&gt;" style="rounded=0;whiteSpace=wrap;html=1;" vertex="1" parent="WIyWlLk6GJQsqaUBKTNV-1">
          <mxGeometry x="3060" y="1360" width="100" height="40" as="geometry" />
        </mxCell>
        <mxCell id="vwgwBciPisruSyK_WmpG-83" value="Booking Price by fomula" style="rounded=0;whiteSpace=wrap;html=1;" vertex="1" parent="WIyWlLk6GJQsqaUBKTNV-1">
          <mxGeometry x="3160" y="1360" width="100" height="40" as="geometry" />
        </mxCell>
        <mxCell id="vwgwBciPisruSyK_WmpG-84" value="&lt;u&gt;Ticket Ticket Id&lt;/u&gt;" style="rounded=0;whiteSpace=wrap;html=1;" vertex="1" parent="WIyWlLk6GJQsqaUBKTNV-1">
          <mxGeometry x="3260" y="1360" width="100" height="40" as="geometry" />
        </mxCell>
        <mxCell id="vwgwBciPisruSyK_WmpG-85" value="" style="endArrow=none;html=1;rounded=0;" edge="1" parent="WIyWlLk6GJQsqaUBKTNV-1">
          <mxGeometry width="50" height="50" relative="1" as="geometry">
            <mxPoint x="3390" y="1580" as="sourcePoint" />
            <mxPoint x="3390" y="1340" as="targetPoint" />
            <Array as="points">
              <mxPoint x="3390" y="1460" />
            </Array>
          </mxGeometry>
        </mxCell>
        <mxCell id="vwgwBciPisruSyK_WmpG-86" value="" style="endArrow=none;html=1;rounded=0;" edge="1" parent="WIyWlLk6GJQsqaUBKTNV-1">
          <mxGeometry width="50" height="50" relative="1" as="geometry">
            <mxPoint x="3210" y="1340" as="sourcePoint" />
            <mxPoint x="3390" y="1340" as="targetPoint" />
          </mxGeometry>
        </mxCell>
        <mxCell id="vwgwBciPisruSyK_WmpG-87" value="" style="endArrow=none;html=1;rounded=0;entryX=0.5;entryY=1;entryDx=0;entryDy=0;startArrow=none;startFill=0;endFill=0;" edge="1" parent="WIyWlLk6GJQsqaUBKTNV-1" target="vwgwBciPisruSyK_WmpG-71">
          <mxGeometry width="50" height="50" relative="1" as="geometry">
            <mxPoint x="3210" y="1340" as="sourcePoint" />
            <mxPoint x="3160" y="1370" as="targetPoint" />
          </mxGeometry>
        </mxCell>
        <mxCell id="vwgwBciPisruSyK_WmpG-89" value="&lt;u&gt;Ticket Id&lt;/u&gt;" style="rounded=0;whiteSpace=wrap;html=1;" vertex="1" parent="WIyWlLk6GJQsqaUBKTNV-1">
          <mxGeometry x="2560" y="1756.25" width="100" height="40" as="geometry" />
        </mxCell>
        <mxCell id="vwgwBciPisruSyK_WmpG-90" value="Ticket" style="text;html=1;align=center;verticalAlign=middle;resizable=0;points=[];autosize=1;strokeColor=none;fillColor=none;" vertex="1" parent="WIyWlLk6GJQsqaUBKTNV-1">
          <mxGeometry x="2550" y="1730" width="60" height="30" as="geometry" />
        </mxCell>
        <mxCell id="vwgwBciPisruSyK_WmpG-91" value="" style="endArrow=none;html=1;rounded=0;entryX=0.5;entryY=1;entryDx=0;entryDy=0;startArrow=none;startFill=0;endFill=0;" edge="1" parent="WIyWlLk6GJQsqaUBKTNV-1" target="vwgwBciPisruSyK_WmpG-80">
          <mxGeometry width="50" height="50" relative="1" as="geometry">
            <mxPoint x="3190" y="1580" as="sourcePoint" />
            <mxPoint x="3120" y="1440" as="targetPoint" />
          </mxGeometry>
        </mxCell>
        <mxCell id="vwgwBciPisruSyK_WmpG-92" value="" style="endArrow=none;html=1;rounded=0;" edge="1" parent="WIyWlLk6GJQsqaUBKTNV-1">
          <mxGeometry width="50" height="50" relative="1" as="geometry">
            <mxPoint x="2620" y="1740" as="sourcePoint" />
            <mxPoint x="3320" y="1750" as="targetPoint" />
          </mxGeometry>
        </mxCell>
        <mxCell id="vwgwBciPisruSyK_WmpG-93" value="" style="endArrow=none;html=1;rounded=0;entryX=0.5;entryY=1;entryDx=0;entryDy=0;startArrow=none;startFill=0;endFill=0;" edge="1" parent="WIyWlLk6GJQsqaUBKTNV-1" target="vwgwBciPisruSyK_WmpG-84">
          <mxGeometry width="50" height="50" relative="1" as="geometry">
            <mxPoint x="3320" y="1750" as="sourcePoint" />
            <mxPoint x="3100" y="1530" as="targetPoint" />
          </mxGeometry>
        </mxCell>
        <mxCell id="NaPuGRy9ujqSuR9sPVXI-49" style="edgeStyle=orthogonalEdgeStyle;rounded=0;orthogonalLoop=1;jettySize=auto;html=1;entryX=0.5;entryY=0;entryDx=0;entryDy=0;endArrow=classic;endFill=1;startArrow=none;startFill=0;" edge="1" parent="WIyWlLk6GJQsqaUBKTNV-1">
          <mxGeometry relative="1" as="geometry">
            <mxPoint x="2710" y="1756.25" as="sourcePoint" />
            <mxPoint x="2610" y="1360" as="targetPoint" />
            <Array as="points">
              <mxPoint x="2710" y="1730" />
              <mxPoint x="2480" y="1730" />
              <mxPoint x="2480" y="1340" />
              <mxPoint x="2610" y="1340" />
            </Array>
          </mxGeometry>
        </mxCell>
        <mxCell id="vwgwBciPisruSyK_WmpG-94" value="&lt;u&gt;Passenger Passport_number&lt;/u&gt;" style="rounded=0;whiteSpace=wrap;html=1;" vertex="1" parent="WIyWlLk6GJQsqaUBKTNV-1">
          <mxGeometry x="2660" y="1756.25" width="100" height="40" as="geometry" />
        </mxCell>
        <mxCell id="vwgwBciPisruSyK_WmpG-96" value="" style="endArrow=classic;html=1;rounded=0;entryX=0.5;entryY=0;entryDx=0;entryDy=0;startArrow=none;startFill=0;endFill=1;" edge="1" parent="WIyWlLk6GJQsqaUBKTNV-1" target="vwgwBciPisruSyK_WmpG-89">
          <mxGeometry width="50" height="50" relative="1" as="geometry">
            <mxPoint x="2620" y="1740" as="sourcePoint" />
            <mxPoint x="3020" y="1520" as="targetPoint" />
          </mxGeometry>
        </mxCell>
        <mxCell id="vwgwBciPisruSyK_WmpG-98" value="Payment Card expiry date" style="rounded=0;whiteSpace=wrap;html=1;" vertex="1" parent="WIyWlLk6GJQsqaUBKTNV-1">
          <mxGeometry x="2760" y="1200" width="100" height="40" as="geometry" />
        </mxCell>
        <mxCell id="vwgwBciPisruSyK_WmpG-99" value="Payment&amp;nbsp;Card holder name" style="rounded=0;whiteSpace=wrap;html=1;" vertex="1" parent="WIyWlLk6GJQsqaUBKTNV-1">
          <mxGeometry x="2860" y="1200" width="100" height="40" as="geometry" />
        </mxCell>
        <mxCell id="vwgwBciPisruSyK_WmpG-100" value="Payment&amp;nbsp;Card number" style="rounded=0;whiteSpace=wrap;html=1;" vertex="1" parent="WIyWlLk6GJQsqaUBKTNV-1">
          <mxGeometry x="2960" y="1200" width="100" height="40" as="geometry" />
        </mxCell>
        <mxCell id="vwgwBciPisruSyK_WmpG-101" value="Payment&amp;nbsp;Cvc" style="rounded=0;whiteSpace=wrap;html=1;" vertex="1" parent="WIyWlLk6GJQsqaUBKTNV-1">
          <mxGeometry x="3060" y="1200" width="100" height="40" as="geometry" />
        </mxCell>
        <mxCell id="LUMiHVBtqTDPXc2YzDMp-2" style="edgeStyle=orthogonalEdgeStyle;rounded=0;orthogonalLoop=1;jettySize=auto;html=1;entryX=0;entryY=0.5;entryDx=0;entryDy=0;endArrow=classic;endFill=1;startArrow=none;startFill=0;" edge="1" parent="WIyWlLk6GJQsqaUBKTNV-1" source="LUMiHVBtqTDPXc2YzDMp-1" target="NaPuGRy9ujqSuR9sPVXI-22">
          <mxGeometry relative="1" as="geometry">
            <Array as="points">
              <mxPoint x="2810" y="1590" />
              <mxPoint x="2540" y="1590" />
              <mxPoint x="2540" y="1380" />
            </Array>
          </mxGeometry>
        </mxCell>
        <mxCell id="LUMiHVBtqTDPXc2YzDMp-1" value="&lt;u&gt;Passenger Passport_number&lt;/u&gt;" style="rounded=0;whiteSpace=wrap;html=1;" vertex="1" parent="WIyWlLk6GJQsqaUBKTNV-1">
          <mxGeometry x="2760" y="1600" width="100" height="40" as="geometry" />
        </mxCell>
        <mxCell id="vwgwBciPisruSyK_WmpG-103" value="" style="endArrow=none;html=1;rounded=0;entryX=0.5;entryY=1;entryDx=0;entryDy=0;" edge="1" parent="WIyWlLk6GJQsqaUBKTNV-1" target="vwgwBciPisruSyK_WmpG-37">
          <mxGeometry width="50" height="50" relative="1" as="geometry">
            <mxPoint x="2910" y="1180" as="sourcePoint" />
            <mxPoint x="2950" y="1240" as="targetPoint" />
          </mxGeometry>
        </mxCell>
        <mxCell id="vwgwBciPisruSyK_WmpG-104" value="" style="endArrow=none;html=1;rounded=0;" edge="1" parent="WIyWlLk6GJQsqaUBKTNV-1">
          <mxGeometry width="50" height="50" relative="1" as="geometry">
            <mxPoint x="2380" y="1170" as="sourcePoint" />
            <mxPoint x="2910" y="1180" as="targetPoint" />
          </mxGeometry>
        </mxCell>
        <mxCell id="vwgwBciPisruSyK_WmpG-105" value="" style="endArrow=none;html=1;rounded=0;" edge="1" parent="WIyWlLk6GJQsqaUBKTNV-1">
          <mxGeometry width="50" height="50" relative="1" as="geometry">
            <mxPoint x="2380" y="1470" as="sourcePoint" />
            <mxPoint x="2380" y="1170" as="targetPoint" />
          </mxGeometry>
        </mxCell>
        <mxCell id="LUMiHVBtqTDPXc2YzDMp-3" value="resevation on passenger" style="text;html=1;align=center;verticalAlign=middle;resizable=0;points=[];autosize=1;strokeColor=none;fillColor=none;" vertex="1" parent="WIyWlLk6GJQsqaUBKTNV-1">
          <mxGeometry x="2560" y="1838" width="150" height="30" as="geometry" />
        </mxCell>
        <mxCell id="vwgwBciPisruSyK_WmpG-106" value="" style="endArrow=classic;html=1;rounded=0;entryX=0;entryY=0.5;entryDx=0;entryDy=0;endFill=1;" edge="1" parent="WIyWlLk6GJQsqaUBKTNV-1" target="NaPuGRy9ujqSuR9sPVXI-27">
          <mxGeometry width="50" height="50" relative="1" as="geometry">
            <mxPoint x="2380" y="1470" as="sourcePoint" />
            <mxPoint x="2840" y="1360" as="targetPoint" />
          </mxGeometry>
        </mxCell>
        <mxCell id="LUMiHVBtqTDPXc2YzDMp-7" style="edgeStyle=orthogonalEdgeStyle;rounded=0;orthogonalLoop=1;jettySize=auto;html=1;entryX=0.5;entryY=0;entryDx=0;entryDy=0;" edge="1" parent="WIyWlLk6GJQsqaUBKTNV-1" source="LUMiHVBtqTDPXc2YzDMp-4" target="NaPuGRy9ujqSuR9sPVXI-20">
          <mxGeometry relative="1" as="geometry">
            <Array as="points">
              <mxPoint x="2400" y="1900" />
              <mxPoint x="2400" y="1270" />
              <mxPoint x="2710" y="1270" />
            </Array>
          </mxGeometry>
        </mxCell>
        <mxCell id="LUMiHVBtqTDPXc2YzDMp-4" value="&lt;u&gt;Passenger Passport_number&lt;/u&gt;" style="rounded=0;whiteSpace=wrap;html=1;" vertex="1" parent="WIyWlLk6GJQsqaUBKTNV-1">
          <mxGeometry x="2560" y="1880" width="100" height="40" as="geometry" />
        </mxCell>
        <mxCell id="LUMiHVBtqTDPXc2YzDMp-6" style="edgeStyle=orthogonalEdgeStyle;rounded=0;orthogonalLoop=1;jettySize=auto;html=1;entryX=0;entryY=0;entryDx=0;entryDy=0;exitX=0.5;exitY=1;exitDx=0;exitDy=0;" edge="1" parent="WIyWlLk6GJQsqaUBKTNV-1" source="LUMiHVBtqTDPXc2YzDMp-5" target="NaPuGRy9ujqSuR9sPVXI-22">
          <mxGeometry relative="1" as="geometry">
            <Array as="points">
              <mxPoint x="2710" y="1940" />
              <mxPoint x="2500" y="1940" />
              <mxPoint x="2500" y="1350" />
              <mxPoint x="2560" y="1350" />
            </Array>
          </mxGeometry>
        </mxCell>
        <mxCell id="LUMiHVBtqTDPXc2YzDMp-5" value="&lt;u&gt;reservation number&lt;/u&gt;" style="rounded=0;whiteSpace=wrap;html=1;" vertex="1" parent="WIyWlLk6GJQsqaUBKTNV-1">
          <mxGeometry x="2660" y="1880" width="100" height="40" as="geometry" />
        </mxCell>
      </root>
    </mxGraphModel>
  </diagram>
</mxfile>
